<?xml version="1.0" encoding="UTF-8"?>
<svg version="1.1" xmlns="http://www.w3.org/2000/svg" width="1162" height="1096">
<path d="M0 0 C4.17167187 1.39055729 5.50476728 4.34618945 7.8125 7.875 C17.43527531 22.20634159 27.60732618 36.02550408 39 49 C39.73347656 49.87914062 40.46695313 50.75828125 41.22265625 51.6640625 C50.91074115 63.02250687 66.1470677 75.63124392 81.08203125 79.05078125 C88.41735075 80.80800838 92.55329751 82.80845981 96.8359375 89.28515625 C99.95333301 94.48300221 102.77704978 99.82603147 105.54443359 105.21679688 C110.4158954 114.53156785 116.76006888 122.4233279 124 130 C124.56589844 130.64066406 125.13179687 131.28132812 125.71484375 131.94140625 C146.88870666 154.93977436 179.37320803 169.51178303 210.34472656 171.18017578 C233.59104842 172.05971522 256.24671978 169.76620503 277.19775391 158.85546875 C283.21752807 155.78423617 287.42483123 155.75139218 294 157 C295.28438965 157.22623047 295.28438965 157.22623047 296.59472656 157.45703125 C299.27677435 157.94666669 301.95017092 158.47247818 304.625 159 C327.43878756 163.28225541 347.72530101 162.1948711 370 156 C370.70962891 155.80390137 371.41925781 155.60780273 372.15039062 155.40576172 C385.82071666 151.51864006 397.99951312 145.74755148 408.14453125 135.6875 C410 134 410 134 412 134 C412.268125 133.401875 412.53625 132.80375 412.8125 132.1875 C414.06346046 129.88309915 414.93912199 128.61583327 417 127 C419.73291016 126.44750977 419.73291016 126.44750977 423.0390625 126.19140625 C424.25102295 126.08675049 425.4629834 125.98209473 426.71166992 125.87426758 C428.00306885 125.77138428 429.29446777 125.66850098 430.625 125.5625 C457.96447491 123.07884377 481.67026311 114.34714515 504.453125 98.671875 C507 97 507 97 509 97 C508.43152563 105.49872692 506.73013123 113.68759885 504.93652344 121.9987793 C504.61890668 123.48991207 504.30176615 124.98114635 503.98506165 126.47247314 C503.12809311 130.50120371 502.26447849 134.52848305 501.39960384 138.55552268 C500.4892138 142.80001251 499.58495624 147.04580867 498.67999268 151.29145813 C496.96205717 159.34658771 495.23854656 167.40051384 493.51306462 175.45402986 C491.56843031 184.53187153 489.63042149 193.61112347 487.69280577 202.69046533 C475.48519231 259.8875009 475.48519231 259.8875009 470 285 C464.14727085 284.50650274 458.52431743 283.81966856 452.80615234 282.41772461 C452.16095642 282.26152145 451.5157605 282.1053183 450.85101318 281.94438171 C448.76103874 281.43674482 446.67353076 280.91967685 444.5859375 280.40234375 C443.12063788 280.04445766 441.65519122 279.68717314 440.18960571 279.33045959 C436.36434131 278.39772902 432.5411073 277.45693116 428.71826172 276.51434326 C424.80427117 275.55083199 420.8883834 274.59509619 416.97265625 273.63867188 C409.31324392 271.76664794 401.65596247 269.8860829 394 268 C393.91245201 268.96303543 393.91245201 268.96303543 393.82313538 269.94552612 C393.34658053 274.97471936 392.74909803 279.91502066 391.80859375 284.8828125 C391.58623047 286.06875 391.36386719 287.2546875 391.13476562 288.4765625 C390.90466797 289.68054688 390.67457031 290.88453125 390.4375 292.125 C390.20353516 293.36765625 389.96957031 294.6103125 389.72851562 295.890625 C389.15612136 298.92781907 388.57987052 301.96422606 388 305 C388.62679153 305.10404144 389.25358307 305.20808289 389.89936829 305.3152771 C397.83124701 306.68873426 405.60841416 308.5339393 413.41796875 310.4765625 C414.76980989 310.81030077 416.12172475 311.14374058 417.47370911 311.47689819 C420.9940742 312.34522494 424.51343793 313.21754252 428.03259277 314.09075928 C431.63895892 314.98484308 435.24627919 315.87506024 438.85351562 316.765625 C445.90327123 318.50668161 452.95197113 320.25196488 460 322 C459.44645732 329.95182873 457.93526434 337.54477332 456.18261719 345.31054688 C455.88551839 346.64674282 455.5889364 347.98305376 455.29281902 349.31946754 C454.47522733 353.00233939 453.65035589 356.68354816 452.82434154 360.36453867 C451.91641049 364.41685559 451.01541591 368.47071542 450.11354065 372.52438354 C448.51757756 379.69342963 446.9173387 386.86151083 445.31436157 394.0289917 C442.9298618 404.69122853 440.55205599 415.35494991 438.17593205 426.01905608 C435.06551117 439.97846095 431.95361884 453.93753683 428.83854675 467.89590454 C420.88477041 503.53662248 412.94672335 539.18082187 405.01497298 574.82644661 C403.16296646 583.14943672 401.31081004 591.47239347 399.45864868 599.79534912 C399.12051315 601.31481399 398.78237771 602.83427888 398.44424236 604.35374379 C397.93660953 606.63487205 397.42897637 608.91600024 396.92134216 611.19712819 C396.07444569 615.00278048 395.22755293 618.80843359 394.3806684 622.61408854 C386.91851925 656.14681233 379.45482895 689.67919281 371.98828125 723.2109375 C371.83670639 723.89165743 371.68513154 724.57237735 371.52896351 725.27372515 C360.04350755 776.85455789 348.53304539 828.42978659 337 880 C335.41892592 879.84987571 333.83807059 879.69744668 332.25730896 879.54406738 C330.93676592 879.41711864 330.93676592 879.41711864 329.58954525 879.28760529 C323.74771325 878.63878798 318.03595965 877.30452339 312.3112793 876.00097656 C310.80310492 875.66498983 309.29117023 875.34548696 307.77612305 875.04199219 C305.56065039 874.59694402 303.36199288 874.10150176 301.16015625 873.59375 C300.48517593 873.46834839 299.81019562 873.34294678 299.11476135 873.21374512 C297.21118164 872.74023438 297.21118164 872.74023438 294 871 C292.42389641 868.13420779 291.73012212 865.17201077 291 862 C290.60152293 860.57715313 290.19911788 859.15539952 289.79248047 857.73486328 C289.39838185 856.2639698 289.00670543 854.79242565 288.6171875 853.3203125 C288.17269836 851.6652308 287.72769123 850.01028815 287.28222656 848.35546875 C286.9381073 847.07422119 286.9381073 847.07422119 286.58703613 845.76708984 C281.9701027 828.63544107 277.10704313 811.67098634 271 795 C270.71237793 794.20819336 270.42475586 793.41638672 270.12841797 792.60058594 C263.74038308 775.44154046 252.13368293 761.46728014 240 748 C239.54802246 747.49694336 239.09604492 746.99388672 238.63037109 746.47558594 C235.94384504 743.49578814 233.22581793 740.54643934 230.4921875 737.60986328 C228.87133092 735.86118391 227.26363873 734.10090691 225.65625 732.33984375 C218.58988837 724.63413057 211.30290636 717.33945213 203.51416016 710.36572266 C202.06132366 709.05531193 200.62973075 707.72146426 199.19921875 706.38671875 C172.07671962 681.14827166 142.52307019 671.02925517 106 667 C104.783125 666.86319824 103.56625 666.72639648 102.3125 666.58544922 C50.49449282 660.88572546 7.52490239 668.95060189 -39.75 691.0625 C-40.45339508 691.38957947 -41.15679016 691.71665894 -41.88150024 692.0536499 C-79.63868316 709.69760698 -108.56433891 737.24383836 -130 773 C-139.33227415 772.41557329 -148.0903467 770.20101858 -157.125 767.9375 C-158.66911536 767.55601077 -160.21338523 767.1751464 -161.7578125 766.79492188 C-165.50702814 765.87047358 -169.25405313 764.93760177 -173 764 C-172.45677509 756.54953142 -171.14180311 749.45868187 -169.45336914 742.18945312 C-169.1920369 741.04204147 -168.93070465 739.89462982 -168.66145325 738.71244812 C-167.94282684 735.56272917 -167.21880031 732.4143109 -166.49239659 729.2663784 C-165.71371113 725.88568234 -164.94216626 722.50335655 -164.16978455 719.12121582 C-162.83884102 713.2975246 -161.50356177 707.47484185 -160.1652832 701.65283203 C-158.21692054 693.17649791 -156.27561187 684.69856012 -154.33618855 676.2201767 C-151.44691718 663.58966329 -148.55422261 650.95993815 -145.65866733 638.33086395 C-141.84380879 621.69175335 -138.03997203 605.05015898 -134.24609375 588.40625 C-133.98425356 587.2575795 -133.72241337 586.108909 -133.45263863 584.9254303 C-132.1510699 579.21522661 -130.84975407 573.50496532 -129.54855347 567.79467773 C-127.98449014 560.93127985 -126.41927388 554.06814522 -124.85375977 547.20507812 C-124.59156867 546.05565483 -124.32937757 544.90623154 -124.05924129 543.72197723 C-123.52619622 541.38517208 -122.99314917 539.04836737 -122.46010017 536.71156311 C-115.29873847 505.31629641 -108.14286788 473.91977805 -100.98682904 442.52329779 C-91.12847169 399.27070294 -81.26983243 356.01817221 -71.40698242 312.76660156 C-70.32694965 308.0303002 -69.24703345 303.29397228 -68.16723633 298.55761719 C-61.13226926 267.7003038 -54.07640038 236.84783863 -47 206 C-38.33299905 206.52631297 -30.05437869 208.08981152 -21.58203125 209.94140625 C-20.2302395 210.23200693 -18.87832357 210.52203049 -17.52629089 210.81150818 C-14.00540921 211.56693943 -10.4862452 212.33008444 -6.96740723 213.0949707 C-3.36145751 213.8773186 0.24609762 214.65219046 3.85351562 215.42773438 C10.90391595 216.94460171 17.95251466 218.46963983 25 220 C25.13591553 218.81792969 25.27183105 217.63585937 25.41186523 216.41796875 C25.8824808 212.66171439 26.5752814 209.00726531 27.41015625 205.3125 C27.67763672 204.12011719 27.94511719 202.92773438 28.22070312 201.69921875 C28.49849609 200.47847656 28.77628906 199.25773438 29.0625 198 C29.34416016 196.74832031 29.62582031 195.49664062 29.91601562 194.20703125 C30.60730396 191.13724235 31.30205525 188.06828108 32 185 C31.43664948 184.8984964 30.87329895 184.7969928 30.2928772 184.69241333 C22.85946038 183.28594542 15.61960534 181.33740767 8.3359375 179.3046875 C7.04994152 178.94851148 5.76385793 178.59265163 4.47769165 178.23709106 C1.12650385 177.30975747 -2.22349281 176.37819277 -5.57324219 175.44567871 C-9.00513694 174.49112683 -12.4381649 173.54066854 -15.87109375 172.58984375 C-22.58183068 170.7305203 -29.29131556 168.86671516 -36 167 C-35.46693409 160.43270666 -34.53424912 154.11912417 -33.07324219 147.69726562 C-32.87916716 146.82233302 -32.68509212 145.94740042 -32.48513603 145.0459547 C-31.84458679 142.16478663 -31.19578033 139.28554654 -30.546875 136.40625 C-30.08945149 134.35670527 -29.63254336 132.30704545 -29.17611694 130.25727844 C-27.9584084 124.79542204 -26.73357785 119.33518616 -25.50730133 113.87524796 C-24.24532444 108.25069042 -22.98994623 102.62466065 -21.73388672 96.9987793 C-19.50750895 87.03138541 -17.27562155 77.06523651 -15.04052925 67.09979343 C-13.06954091 58.31176333 -11.10251075 49.52285192 -9.13670349 40.73366165 C-6.09920051 27.15396156 -3.05379354 13.57604629 0 0 Z M93 200 C91.71221521 205.0521959 90.43064491 210.10591221 89.15478516 215.16113281 C88.7199639 216.88031423 88.28345341 218.59906933 87.84521484 220.31738281 C87.21526653 222.78860862 86.59142711 225.26130845 85.96875 227.734375 C85.77188599 228.50118591 85.57502197 229.26799683 85.37219238 230.05804443 C84.5086877 233.51061532 84 236.41651031 84 240 C94.99513155 242.22219608 105.99129634 244.43919804 116.98881054 246.64957428 C122.09535437 247.67610171 127.20152496 248.70441508 132.30688477 249.73681641 C137.23379573 250.73306352 142.16163122 251.72461075 147.0901432 252.71290588 C148.97033696 253.09079237 150.85019138 253.47037138 152.72969627 253.85166931 C155.36213217 254.38541471 157.99571007 254.91313093 160.62963867 255.43945312 C161.79489326 255.67789696 161.79489326 255.67789696 162.98368835 255.92115784 C166.70569866 256.65847406 170.20180326 257.18739588 174 257 C175.00347467 252.39324298 176.00017629 247.78509131 176.99072266 243.17553711 C177.32839747 241.60873244 177.66789595 240.04231961 178.00927734 238.47631836 C178.50061239 236.22090426 178.98529842 233.96414658 179.46875 231.70703125 C179.62186646 231.01100296 179.77498291 230.31497467 179.93273926 229.59785461 C180.69892253 225.9879124 181.06497024 222.68066754 181 219 C170.11799246 216.51764115 159.23494124 214.03991663 148.35052872 211.56812286 C143.29663902 210.42025715 138.24312445 209.27079098 133.19042969 208.11767578 C128.31540309 207.00516938 123.43944071 205.89685595 118.56279755 204.79145813 C116.70131144 204.36873444 114.84016903 203.94449435 112.97937775 203.51872253 C110.37548849 202.92319172 107.77043561 202.33303667 105.16503906 201.74414062 C104.39395813 201.56647659 103.6228772 201.38881256 102.82843018 201.20576477 C99.43320216 200.44372502 96.50151094 200 93 200 Z M241 233 C239.99652533 237.60675702 238.99982371 242.21490869 238.00927734 246.82446289 C237.67160253 248.39126756 237.33210405 249.95768039 236.99072266 251.52368164 C236.49938761 253.77909574 236.01470158 256.03585342 235.53125 258.29296875 C235.30157532 259.33701118 235.30157532 259.33701118 235.06726074 260.40214539 C234.30107747 264.0120876 233.93502976 267.31933246 234 271 C235.28427635 271.32493439 235.28427635 271.32493439 236.59449768 271.65643311 C244.72809632 273.71449427 252.86145904 275.77348477 260.99456882 277.83347702 C265.1742316 278.89208797 269.35397956 279.95035986 273.53393555 281.0078125 C277.58014223 282.03144307 281.62610772 283.05602218 285.67191887 284.0812149 C287.20290801 284.46899324 288.73397869 284.85644978 290.26513863 285.24355316 C292.43683415 285.79265797 294.60824771 286.34286173 296.77954102 286.89355469 C297.46710259 287.06755169 298.15466417 287.24154869 298.86306095 287.42081833 C302.33458458 288.30388042 305.79744248 289.21112243 309.25192261 290.15881348 C310.27660975 290.43866529 310.27660975 290.43866529 311.32199764 290.72417068 C313.19114104 291.23726111 315.0584606 291.75698253 316.92564392 292.27716064 C320.12260517 293.15258517 320.12260517 293.15258517 324 293 C324.71803882 288.55350644 325.42991172 284.10608148 326.13623047 279.65771484 C326.37707418 278.14638017 326.6195642 276.63530685 326.86376953 275.12451172 C327.21565996 272.94566362 327.56150612 270.76592635 327.90625 268.5859375 C328.0156189 267.91694427 328.12498779 267.24795105 328.2376709 266.5586853 C328.84734866 262.65950771 329.04074827 258.9401406 329 255 C328.10987717 254.76862839 327.21975433 254.53725677 326.30265808 254.2988739 C317.87356197 252.10775563 309.44463077 249.91600433 301.01587963 247.72355938 C296.68360865 246.59669387 292.3512765 245.47006476 288.01879883 244.34399414 C283.83002882 243.25526551 279.64142698 242.16589209 275.45293617 241.07608986 C273.86279463 240.66246859 272.27259479 240.24907139 270.68233299 239.8359127 C268.43804622 239.252792 266.19397449 238.66885044 263.94995117 238.0847168 C262.9038406 237.81313515 262.9038406 237.81313515 261.83659649 237.53606701 C256.93680933 236.25923574 252.06026764 234.91159879 247.19770813 233.49983215 C244.72557247 232.8521533 244.72557247 232.8521533 241 233 Z " fill="#EC7617" transform="translate(536,119)"/>
<path d="M0 0 C7.00175218 0.53109945 13.81119048 1.38447477 20.6940918 2.76586914 C22.04249397 3.02943459 22.04249397 3.02943459 23.4181366 3.29832458 C26.34622677 3.87200516 29.27270406 4.45349716 32.19921875 5.03515625 C34.24606419 5.4377782 36.29300697 5.83990554 38.34004211 6.24156189 C43.69534603 7.29371193 49.04931126 8.35252352 54.40301514 9.41278076 C59.87920427 10.49605122 65.35664714 11.57294324 70.83398438 12.65039062 C81.55721832 14.76072574 92.2790473 16.87810839 103 19 C103.02401288 19.65928277 103.04802576 20.31856554 103.0727663 20.99782658 C103.18542028 24.01641031 103.30517879 27.03467307 103.42504883 30.05297852 C103.462696 31.09004189 103.50034317 32.12710526 103.53913116 33.19559479 C103.84558257 40.73306487 104.70370826 47.64246832 106.6875 54.9375 C107.08787476 56.49114258 107.08787476 56.49114258 107.49633789 58.07617188 C113.38259536 80.28742109 121.60469285 93.65678866 141.6875 105.875 C142.29271484 106.24431641 142.89792969 106.61363281 143.52148438 106.99414062 C157.73766209 115.35750411 173.94074344 115.30097165 190 116 C191.44959092 120.12456522 192.53628596 124.18111364 193.40234375 128.46484375 C193.77842773 130.28338867 193.77842773 130.28338867 194.16210938 132.13867188 C194.67811516 134.66671028 195.19114738 137.19535748 195.70117188 139.72460938 C198.85666601 154.92101717 205.45922183 163.83076534 216 175 C216.94407715 176.01102783 216.94407715 176.01102783 217.90722656 177.04248047 C220.06533304 179.33854122 222.24835592 181.60853834 224.4375 183.875 C225.12884033 184.61290771 225.82018066 185.35081543 226.5324707 186.11108398 C233.34344964 193.0605913 239.69777367 196.07977735 249.46875 196.4609375 C251.81267078 196.4564631 254.15665104 196.42696427 256.5 196.375 C257.73234375 196.35848389 258.9646875 196.34196777 260.234375 196.32495117 C282.82815269 195.895114 299.75654705 192.45766275 317.1875 177.23046875 C320 175 320 175 323.125 174.8125 C327.54772645 175.81149304 331.44436612 178.20180189 335.3515625 180.4296875 C344.99211404 184.57904694 355.28744385 185.57630216 365.67602539 186.19067383 C367.69773563 186.31311993 369.71649905 186.46128647 371.73632812 186.61132812 C393.51984566 187.99628316 408.78900653 178.89958823 425.296875 165.38671875 C428.06731441 163.01271594 428.06731441 163.01271594 430.640625 160.20703125 C437.20519415 153.40252902 437.20519415 153.40252902 441.9609375 152.3359375 C444.9098255 152.31451701 447.7781072 152.46899665 450.71044922 152.77392578 C454.48604142 153.14673431 458.26792094 153.36914874 462.0559082 153.57495117 C464.13802064 153.68905915 466.21898976 153.82739188 468.29760742 153.9934082 C478.89019024 154.63033985 486.29729386 151.22787878 494.296875 144.4609375 C503.31850168 136.24760685 511.45678564 127.5937969 519 118 C519.33 117.67 519.66 117.34 520 117 C526.94558115 117.14348264 533.68811102 118.68355218 540.40673828 120.31665039 C541.39330917 120.55088211 542.37988007 120.78511383 543.39634705 121.02644348 C546.62251083 121.79400731 549.84638778 122.57074679 553.0703125 123.34765625 C555.32032899 123.88488328 557.57048381 124.42153123 559.82077026 124.95762634 C565.71737495 126.36403183 571.61207738 127.77825421 577.50640869 129.19415283 C583.53178182 130.64005132 589.55893401 132.07849368 595.5859375 133.51757812 C607.39237083 136.33778742 619.19680656 139.16626399 631 142 C630.45969417 149.37887279 629.17024584 156.39511381 627.48510742 163.59179688 C627.22695094 164.71674907 626.96879446 165.84170126 626.70281506 167.00074291 C625.8428595 170.74144768 624.97415433 174.48006377 624.10546875 178.21875 C623.487811 180.89455319 622.87205819 183.57079377 622.2562561 186.24702454 C620.93432254 191.98774553 619.60802034 197.72744242 618.27871704 203.46646118 C616.34089957 211.83292233 614.41024044 220.20102287 612.48158062 228.56959927 C611.58482636 232.46065267 610.68782332 236.35164871 609.79075623 240.24263 C609.61209292 241.01757614 609.43342962 241.79252227 609.24935228 242.59095162 C607.97301254 248.1263668 606.69539675 253.66148654 605.41712952 259.19645691 C600.82950434 279.06143785 596.25378622 298.92908935 591.6953125 318.80078125 C591.40750475 320.05540539 591.119697 321.31002953 590.8231678 322.60267258 C589.38871396 328.85630629 587.95459752 335.11001732 586.5206604 341.36376953 C583.93486401 352.64054174 581.34650796 363.91672655 578.75842476 375.19297409 C577.32272314 381.44844759 575.88720271 387.70396266 574.45166016 393.95947266 C570.97187232 409.12276557 567.49182591 424.28599913 564.01171875 439.44921875 C563.57806975 441.3386769 563.57806975 441.3386769 563.13566017 443.26630592 C561.67478349 449.63150728 560.21390318 455.99670781 558.75302124 462.36190796 C556.12693061 473.80403999 553.50087216 485.24617942 550.87481117 496.68831825 C549.41654209 503.04221247 547.95827094 509.39610621 546.5 515.75 C545.91666666 518.29166666 545.33333332 520.83333333 544.75 523.375 C524.91666667 609.79166667 505.08333333 696.20833333 485.25 782.625 C484.96124308 783.88315521 484.67248615 785.14131042 484.37497902 786.43759155 C483.7917157 788.97895306 483.2084523 791.52031455 482.62518883 794.06167603 C481.16578361 800.42051145 479.70637977 806.7793472 478.24697876 813.13818359 C475.63477976 824.51993341 473.02257178 835.90168117 470.41031075 847.28341675 C468.96884604 853.5639429 467.52738962 859.84447096 466.0859375 866.125 C465.79986004 867.37146301 465.51378258 868.61792603 465.2190361 869.90216064 C461.04412653 888.09266142 456.86965947 906.28326371 452.69543529 924.47392178 C451.55965853 929.42345724 450.42385195 934.37298585 449.2880249 939.32250977 C449.12915999 940.01478574 448.97029507 940.70706171 448.80661607 941.42031574 C448.01163616 944.88454586 447.21665215 948.34877504 446.42166519 951.81300354 C444.88632648 958.50340758 443.35104697 965.19382519 441.81591797 971.88427734 C440.38607419 978.11585535 438.95608106 984.34739906 437.5259819 990.57891846 C437.00655952 992.84237393 436.48719056 995.10584166 435.96788406 997.36932373 C432.32456747 1013.24914107 428.66689443 1029.12561053 425 1045 C417.15337147 1044.36499348 409.76732743 1042.6219422 402.14257812 1040.70532227 C400.76369877 1040.36311895 399.38469744 1040.02140684 398.00558472 1039.68014526 C394.28575907 1038.75797768 390.56782538 1037.82839533 386.85031319 1036.89695096 C383.74388425 1036.11930036 380.63656947 1035.34522275 377.52926016 1034.57109874 C370.20532963 1032.74638482 362.88295189 1030.91553576 355.56152344 1029.08081055 C348.00347687 1027.18690397 340.44289097 1025.30340176 332.88099718 1023.42492062 C326.38339787 1021.81044326 319.88740228 1020.18962938 313.3926692 1018.56366009 C309.51536775 1017.59303643 305.63749714 1016.6248558 301.7580719 1015.66275215 C298.11840808 1014.75981444 294.48080593 1013.84900769 290.84466934 1012.9319725 C289.50737983 1012.59612974 288.16937523 1012.26312031 286.83063889 1011.93309212 C285.01008247 1011.48381597 283.19226407 1011.02348695 281.37463379 1010.56251526 C280.35483681 1010.30755563 279.33503983 1010.052596 278.2843399 1009.78991032 C276 1009 276 1009 275 1007 C274.80835099 1004.47537119 274.67022018 1001.96999368 274.5703125 999.44140625 C274.4985548 997.85479836 274.42635196 996.26821055 274.35375977 994.68164062 C274.31678986 993.84608643 274.27981995 993.01053223 274.24172974 992.1496582 C271.94490572 941.2436313 261.83152786 906.212177 227 868 C226.06075684 866.96818604 226.06075684 866.96818604 225.10253906 865.91552734 C223.13941256 863.76893562 221.16636188 861.63208961 219.1875 859.5 C218.58945557 858.85329346 217.99141113 858.20658691 217.37524414 857.5402832 C211.17240929 850.93698944 205.00818088 844.95476785 196.75 841.0625 C195.72700806 840.5684668 195.72700806 840.5684668 194.68334961 840.06445312 C156.92531256 822.16811988 107.54618733 803.97947117 66.15625 818.421875 C49.38249986 824.63261014 34.23442926 833.95130702 19.00585938 843.19238281 C16.46339265 844.7213321 13.90758573 846.2144522 11.328125 847.6796875 C-20.04762135 865.56309391 -37.63886263 901.75998593 -51 934 C-58.1078091 933.48158723 -64.80418388 932.26932255 -71.70922852 930.53491211 C-72.73057388 930.28427002 -73.75191925 930.03362793 -74.80421448 929.77539062 C-78.16407835 928.9491809 -81.52145325 928.11329143 -84.87890625 927.27734375 C-87.25163251 926.69197179 -89.6245146 926.10723113 -91.99754333 925.52308655 C-98.2515127 923.98191236 -104.50344288 922.43262184 -110.75494385 920.88146973 C-116.99762418 919.33378375 -123.2419982 917.79296762 -129.48632812 916.25195312 C-136.72541394 914.46513465 -143.9643974 912.67791378 -151.20254517 910.88729858 C-168.78877098 906.53760532 -186.38616702 902.23652532 -204 898 C-203.46728233 891.19249579 -202.42456422 884.69214509 -200.86816406 878.0480957 C-200.65059134 877.09681006 -200.43301861 876.14552443 -200.20885277 875.16541195 C-199.48355919 872.00084195 -198.7495703 868.83835491 -198.015625 865.67578125 C-197.49133478 863.3957784 -196.96761759 861.11564373 -196.44442749 858.83538818 C-195.3151917 853.91891379 -194.18217273 849.00333239 -193.04620361 844.08840942 C-191.21908857 836.18267871 -189.40053539 828.27499498 -187.58349609 820.36694336 C-186.95619674 817.63727172 -186.32883559 814.90761428 -185.70144653 812.17796326 C-185.54468598 811.49590515 -185.38792543 810.81384705 -185.22641456 810.11112052 C-184.09852755 805.20427142 -182.96942976 800.29770182 -181.83981323 795.39125061 C-177.46659471 776.39508376 -173.11132283 757.39489119 -168.7734375 738.390625 C-168.62629665 737.74601901 -168.4791558 737.10141301 -168.32755613 736.4372735 C-166.6907016 729.26618001 -165.05447028 722.09494441 -163.41851807 714.92364502 C-161.60917839 706.99234774 -159.79861269 699.06133057 -157.98779297 691.13037109 C-157.68324057 689.79648534 -157.37868849 688.46259951 -157.07413673 687.12871361 C-156.61669883 685.12521484 -156.15926033 683.1217162 -155.70181859 681.1182183 C-154.02301999 673.76538075 -152.34450696 666.41247801 -150.66601562 659.05957031 C-150.36059261 657.72162181 -150.05516951 656.38367333 -149.74974632 655.04572487 C-148.83315988 651.03048424 -147.91657936 647.01524225 -147 643 C-142.27709787 622.31047005 -137.55402445 601.62097923 -132.83029461 580.93163824 C-132.374848 578.93683426 -131.91940696 576.94202901 -131.46396637 574.94722366 C-121.9325156 533.20025081 -112.3869228 491.4565256 -102.8324585 449.71481323 C-96.48610268 421.98841255 -90.14376707 394.2611001 -83.8125 366.53125 C-83.66232674 365.87351719 -83.51215347 365.21578438 -83.3574295 364.53812027 C-81.07137293 354.52546984 -78.78565887 344.51274122 -76.5 334.5 C-66.90421928 292.46395059 -57.29695858 250.43054881 -47.67599869 208.4002533 C-40.8013408 178.36748092 -33.93208326 148.33348616 -27.07421875 118.296875 C-26.90852528 117.57116995 -26.74283181 116.8454649 -26.57211733 116.09776878 C-23.32623874 101.88141598 -20.08079808 87.66496325 -16.83653802 73.448241 C-15.49710041 67.57870015 -14.15738766 61.70922214 -12.81760597 55.83975983 C-12.0155123 52.32541697 -11.21376374 48.81099551 -10.41203308 45.29656982 C-6.96498095 30.19223806 -3.49050365 15.09434848 0 0 Z M25 37 C13.24464872 88.48471856 1.52990752 139.97832396 -10.0625 191.5 C-10.3168129 192.63024975 -10.57112579 193.7604995 -10.83314514 194.92499924 C-12.94714405 204.32056493 -15.06091586 213.71618172 -17.17436218 223.11187172 C-23.68443783 252.05321417 -30.21192348 280.99062398 -36.74055862 309.92778397 C-37.6888871 314.13111698 -38.63716065 318.33446238 -39.5854187 322.53781128 C-39.74234658 323.23342614 -39.89927446 323.92904099 -40.06095773 324.64573509 C-40.37839109 326.05282484 -40.69582423 327.45991465 -41.01325715 328.86700451 C-43.088029 338.06386894 -45.16283229 347.26072627 -47.23771667 356.45756531 C-51.5317491 375.4907718 -55.82487683 394.5241822 -60.11744809 413.55771828 C-72.69192549 469.31356657 -85.2714872 525.06825873 -97.86279678 580.82030869 C-104.62161897 610.74727155 -111.3789603 640.67456677 -118.13071728 670.60312438 C-118.61317294 672.7417074 -119.09563736 674.88028844 -119.57810211 677.0188694 C-122.92252207 691.84354518 -126.26618668 706.66839085 -129.60797501 721.49366009 C-130.84451145 726.97926859 -132.08118192 732.46484688 -133.31790638 737.95041299 C-133.62384791 739.30743917 -133.92978347 740.6644667 -134.23571301 742.02149558 C-138.5313146 761.07546699 -142.83839277 780.12679677 -147.15595818 799.17580414 C-148.79335403 806.40195984 -150.42859019 813.62860459 -152.0637331 820.85527039 C-153.58148899 827.56184465 -155.10295152 834.26756359 -156.62727642 840.97264767 C-157.54865329 845.02953072 -158.46653395 849.08719856 -159.38339043 853.14510536 C-159.80514385 855.00829531 -160.22839297 856.87114742 -160.65324593 858.73363304 C-161.22767901 861.25262198 -161.79687609 863.77273765 -162.36474609 866.29321289 C-162.53275884 867.02399992 -162.70077158 867.75478695 -162.87387562 868.50771904 C-163.60927288 871.79629585 -164 874.60458708 -164 878 C-153.07409835 880.46575314 -142.14702285 882.92622907 -131.21843815 885.38006496 C-126.14333352 886.51976921 -121.06864344 887.6612541 -115.99487305 888.80688477 C-111.09398874 889.91340854 -106.19205238 891.01515497 -101.28936577 892.11366463 C-99.42360003 892.53258059 -97.55821282 892.95318631 -95.69322395 893.37554741 C-93.07130059 893.96902025 -90.44806816 894.55634785 -87.82446289 895.14233398 C-87.0620076 895.31640274 -86.29955231 895.4904715 -85.51399231 895.66981506 C-80.35618912 896.81287609 -75.25903324 897.4886828 -70 898 C-69.48050781 896.94941406 -68.96101563 895.89882813 -68.42578125 894.81640625 C-66.62604436 891.18620843 -64.80942213 887.56479082 -62.98242188 883.94824219 C-62.20608485 882.40868715 -61.43755932 880.86519321 -60.671875 879.3203125 C-55.29754533 868.98797447 -46.80862966 860.52536379 -39 852 C-38.09705407 850.99272698 -37.19473753 849.9848895 -36.29296875 848.9765625 C-19.84775835 830.70721512 -1.75277864 813.88269545 21 804 C22.19882812 803.47019531 23.39765625 802.94039062 24.6328125 802.39453125 C38.72897096 796.47292688 53.36865499 792.39899557 68.3125 789.25 C69.25343506 789.05140381 70.19437012 788.85280762 71.16381836 788.64819336 C98.20496137 783.19041231 125.30554059 782.81368746 152 790 C153.04285156 790.27875977 154.08570313 790.55751953 155.16015625 790.84472656 C195.39432105 801.88101174 223.81700836 818.85456107 253 847.875 C253.69383789 848.56408447 254.38767578 849.25316895 255.10253906 849.96313477 C292.5315188 887.51410659 300.77987498 933.12844114 308 984 C319.92516274 986.61256053 331.8512924 989.22065548 343.77868271 991.82302856 C349.31680688 993.03150958 354.85458411 994.24153555 360.39160156 995.45507812 C365.73352816 996.62580355 371.07632231 997.79248911 376.4197464 998.95635986 C378.45983659 999.40146639 380.49960809 999.8480362 382.53905487 1000.29608154 C385.39207274 1000.92260007 388.24617179 1001.54394135 391.10058594 1002.1640625 C391.94647278 1002.35107727 392.79235962 1002.53809204 393.66387939 1002.73077393 C394.83328064 1002.98319855 394.83328064 1002.98319855 396.02630615 1003.24072266 C396.70105862 1003.38820953 397.37581108 1003.53569641 398.07101059 1003.68765259 C400.33240954 1004.10656063 400.33240954 1004.10656063 404 1004 C414.89725391 956.62796103 425.67887039 909.23035316 436.375 861.8125 C436.67139921 860.49853638 436.96779864 859.1845728 437.2641983 857.87060928 C437.86213172 855.21990393 438.46005725 852.56919679 439.05797768 849.9184885 C440.42214769 843.87084419 441.78636477 837.82321049 443.15065813 831.775594 C443.45672954 830.4188364 443.76279509 829.06207749 444.06885481 827.70531726 C450.93071706 797.28693948 457.81880621 766.87452568 464.71243286 736.46333313 C467.44928307 724.38970167 470.18564912 712.31596046 472.921875 700.2421875 C473.07101978 699.5840871 473.22016457 698.92598671 473.37382889 698.24794388 C479.8839987 669.52167305 486.38144422 640.79253062 492.875 612.0625 C495.01428464 602.5976476 497.15359505 593.13280102 499.29296875 583.66796875 C499.69621274 581.88395377 499.69621274 581.88395377 500.10760307 580.06389809 C506.96607733 549.72151321 513.83165984 519.38073712 520.69756842 489.04003382 C521.51381142 485.43301243 522.33004021 481.82598783 523.14627075 478.21896362 C527.92980622 457.0799693 532.71358232 435.94102944 537.49739265 414.80209732 C537.99472191 412.60447443 538.49205097 410.40685149 538.98937988 408.20922852 C539.15345935 407.48418572 539.31753881 406.75914292 539.48659039 406.01212913 C540.81069794 400.16108847 542.13479007 394.31004432 543.45887852 388.45899934 C544.44933503 384.08226087 545.43981884 379.70552859 546.43032169 375.32880062 C549.68085683 360.96563076 552.93094341 346.60235981 556.17935944 332.23871052 C557.44875895 326.6258252 558.71828538 321.01296857 559.98785591 315.40012193 C560.30286256 314.0074546 560.61786374 312.61478604 560.93285942 311.22211623 C565.37855402 291.56689088 569.83412137 271.91392998 574.29803473 252.26283455 C576.3028202 243.43667164 578.30474617 234.60985992 580.30638027 225.78298187 C582.03673446 218.15319501 583.77095141 210.52429674 585.50790024 202.89600849 C586.563394 198.25644675 587.61535707 193.61609002 588.66628647 188.97549248 C589.15202275 186.83404805 589.63925792 184.69294298 590.12808609 182.55220222 C590.79107844 179.64790301 591.44881876 176.74246367 592.10522461 173.83666992 C592.29972104 172.9905974 592.49421747 172.14452488 592.69460773 171.2728138 C592.86849616 170.49802618 593.04238459 169.72323856 593.22154236 168.92497253 C593.37301192 168.25854831 593.52448149 167.59212408 593.68054104 166.90550518 C594.11022868 164.66452564 594.11022868 164.66452564 594 161 C586.54680123 159.2584351 579.09005113 157.53276722 571.63061523 155.81811523 C569.09331004 155.23290775 566.55684095 154.64406277 564.02124023 154.05151367 C560.37697498 153.20054314 556.72990552 152.36268888 553.08203125 151.52734375 C551.94852737 151.25969711 550.8150235 150.99205048 549.64717102 150.71629333 C548.58644882 150.47596878 547.52572662 150.23564423 546.43286133 149.98803711 C545.03720695 149.66493813 545.03720695 149.66493813 543.61335754 149.33531189 C540.75840864 148.96900215 538.75266691 149.18525665 536 150 C533.58133588 151.93298341 533.58133588 151.93298341 531.3046875 154.4453125 C529.98210937 155.81429687 529.98210937 155.81429687 528.6328125 157.2109375 C527.71225808 158.18107529 526.79299103 159.15243625 525.875 160.125 C511.49565402 175.34035447 496.01781595 183.47297402 475 185 C473.11555935 184.96147886 471.23139471 184.908014 469.34765625 184.84375 C457.36219711 184.16775371 457.36219711 184.16775371 446.796875 188.859375 C443.80145556 191.78217084 441.16843775 194.99616576 438.53271484 198.2421875 C425.05722669 213.69671357 398.48084576 219.1538389 379 221 C363.0806085 221.75981296 350.83235321 220.42395988 336.69921875 212.875 C332.03989717 210.42638954 332.03989717 210.42638954 327 209 C324.07127322 210.51981175 324.07127322 210.51981175 321.375 213 C308.98674028 223.13300625 295.80764697 227.0691173 279.94140625 227.23828125 C279.19398666 227.246353 278.44656708 227.25442474 277.67649841 227.26274109 C276.10084275 227.27648165 274.52515857 227.28724795 272.94946289 227.29516602 C271.37417562 227.30660566 269.79892461 227.32692814 268.22387695 227.35668945 C253.06463973 227.64181118 239.11191038 225.4074937 225.125 219.25 C224.33037354 218.90638428 223.53574707 218.56276855 222.71704102 218.20874023 C216.1478695 215.26564952 210.48255217 211.68541211 205 207 C204.12988281 206.26652344 203.25976562 205.53304687 202.36328125 204.77734375 C197.81704924 200.8155302 193.64853423 196.69295758 189.76953125 192.078125 C187.79037654 189.75381968 185.70852593 187.54356403 183.625 185.3125 C175.66826262 176.44758306 165.36231834 164.21800287 163.72973633 151.97290039 C163.40972189 149.71873845 163.04930632 148.02668989 162 146 C159.08593772 144.01045284 155.91578807 143.09263769 152.5625 142.0625 C150.64756269 141.40342676 148.73483478 140.73790369 146.82421875 140.06640625 C145.85274902 139.73012207 144.8812793 139.39383789 143.88037109 139.04736328 C126.30887402 132.65799878 112.34351649 122.9596619 99 110 C98.18273437 109.22011719 97.36546875 108.44023437 96.5234375 107.63671875 C80.57738806 91.33448607 76.42300173 67.49065144 72 46 C65.95045918 44.71312257 59.89983466 43.4315171 53.84814453 42.15478516 C51.78956958 41.71971045 49.73129828 41.28319647 47.67333984 40.84521484 C44.7153054 40.21593689 41.75621777 39.59184227 38.796875 38.96875 C37.87694763 38.77188599 36.95702026 38.57502197 36.00921631 38.37219238 C35.1486261 38.19200562 34.28803589 38.01181885 33.40136719 37.82617188 C32.64635925 37.66628784 31.89135132 37.50640381 31.11346436 37.3416748 C28.6986956 36.89360423 28.6986956 36.89360423 25 37 Z " fill="#EC7617" transform="translate(491,31)"/>
<path d="M0 0 C0.86602341 0.00359528 1.73204681 0.00719055 2.62431335 0.01089478 C3.98515549 0.01067574 3.98515549 0.01067574 5.37348938 0.01045227 C8.38737843 0.01115176 11.40120651 0.01894582 14.41508484 0.02676392 C16.49873826 0.02862797 18.58239212 0.03005193 20.66604614 0.03105164 C26.16191305 0.03487783 31.65775372 0.04470897 37.15361023 0.05575562 C42.75704086 0.06596757 48.36047572 0.07054879 53.96391296 0.07559204 C64.96717973 0.08633115 75.97042698 0.10340877 86.97367859 0.12442017 C87.2517334 0.83395844 87.52978821 1.5434967 87.81626892 2.27453613 C89.09794948 5.53644935 90.38731832 8.79527231 91.67680359 12.05410767 C92.11395691 13.17003296 92.55111023 14.28595825 93.00151062 15.43569946 C97.75262914 27.41009892 103.13959843 38.61079537 111.97367859 48.12442017 C111.97367859 48.78442017 111.97367859 49.44442017 111.97367859 50.12442017 C112.73938171 50.50147095 112.73938171 50.50147095 113.52055359 50.88613892 C115.45979356 51.86502279 117.38376567 52.87414956 119.30180359 53.89395142 C133.04603586 61.11241231 146.74348866 65.16710173 161.97367859 68.12442017 C163.93205278 68.52005132 165.89039072 68.91586195 167.84867859 69.31192017 C169.223475 69.58378505 170.59838806 69.85506603 171.97367859 70.12442017 C170.89146991 79.84127257 169.71705231 89.49877166 167.97367859 99.12442017 C160.24456118 98.54062513 153.15468027 96.7208003 145.72367859 94.56192017 C144.49528259 94.20694458 143.2668866 93.85196899 142.00126648 93.48623657 C106.08404499 82.89750461 87.24708044 68.85794417 68.97367859 36.12442017 C64.97367859 28.65554704 64.97367859 28.65554704 64.97367859 26.12442017 C64.17832703 26.14762329 63.38297546 26.17082642 62.56352234 26.19473267 C49.97841737 26.38317274 37.47945923 25.47148142 24.931427 24.60491943 C23.62783957 24.51492235 22.32425215 24.42492527 20.98116207 24.332201 C19.98869252 24.26363333 18.99622297 24.19506565 17.97367859 24.12442017 C17.97729494 25.00090271 17.97729494 25.00090271 17.98098436 25.89509197 C18.14469902 67.81864756 17.70521546 109.71621618 17.01638809 151.6333829 C16.86800233 160.67579047 16.72541948 169.71828777 16.58285304 178.76078864 C16.30379186 196.4491549 16.01936713 214.13743161 15.73247847 231.82567246 C15.48199947 247.26977824 15.23334394 262.71391209 14.98643303 278.15807533 C14.96994199 279.18940687 14.95345096 280.22073842 14.93646019 281.28332243 C14.86950006 285.47100168 14.80254648 289.65868104 14.7356038 293.84636057 C14.11087855 332.92452737 13.48057293 372.00260238 12.84769543 411.08063791 C12.28569658 445.78436521 11.72879489 480.48817089 11.17607117 515.19204712 C10.55325535 554.29573808 9.92727224 593.39937622 9.29616255 632.50293428 C9.22901522 636.66392113 9.16187583 640.82490812 9.09473991 644.98589516 C9.07820953 646.01025112 9.06167915 647.03460708 9.04464784 648.09000414 C8.79499959 663.56372136 8.54778825 679.03747629 8.30175972 694.51125145 C8.02276232 712.05774627 7.74028961 729.60418123 7.45314247 747.15054467 C7.29249505 756.97310605 7.13458294 766.79570259 6.98053308 776.61836971 C6.87759004 783.16505037 6.77111457 789.71166721 6.6616758 796.2582425 C6.5993015 799.99546424 6.53853082 803.7326942 6.48201967 807.47000959 C6.42133187 811.48103772 6.35315693 815.49190189 6.28413486 819.50279522 C6.26750973 820.6814634 6.2508846 821.86013158 6.23375568 823.07451698 C6.21430738 824.13215341 6.19485908 825.18978985 6.17482144 826.27947587 C6.16000328 827.19803572 6.14518512 828.11659556 6.12991792 829.06299056 C5.97367859 831.12442017 5.97367859 831.12442017 4.97367859 832.12442017 C2.91330906 832.22698615 0.84909434 832.25399934 -1.21382141 832.24942017 C-2.3417511 832.25199829 -3.46968079 832.25457642 -4.63179016 832.25723267 C-8.53257546 832.18913787 -12.41056046 831.90055341 -16.30097961 831.61611938 C-17.56070084 831.52450531 -18.82042206 831.43289124 -20.11831665 831.33850098 C-21.07795822 831.26785431 -22.03759979 831.19720764 -23.02632141 831.12442017 C-23.30349 791.78616168 -22.56564518 752.48391013 -21.74524838 713.15702172 C-21.54787418 703.68528946 -21.35649911 694.21343792 -21.16517915 684.74158177 C-20.7905971 666.20619077 -20.41039301 647.67091847 -20.02766588 629.13569406 C-19.6933412 612.94390977 -19.36092322 596.75208771 -19.03034782 580.56022644 C-19.0083114 579.48100297 -18.98627498 578.4017795 -18.96357078 577.2898523 C-18.87410204 572.9080924 -18.7846406 568.52633235 -18.69519103 564.14457207 C-17.85928995 523.19902504 -17.017598 482.25359888 -16.17323457 441.30822558 C-15.42318699 404.93471848 -14.67830056 368.56110906 -13.93769836 332.18740845 C-13.10391901 291.23832716 -12.2669988 250.2893121 -11.42493719 209.34040022 C-11.33532242 204.98208599 -11.2457151 200.6237716 -11.15611076 196.26545715 C-11.13404778 195.19246257 -11.11198479 194.11946798 -11.08925323 193.01395841 C-10.75590523 176.79950197 -10.42496609 160.58499751 -10.09518623 144.37046814 C-9.72102695 125.97462072 -9.34339564 107.57884828 -8.96110613 89.18316793 C-8.74715166 78.88299274 -8.53591853 68.58277008 -8.32852822 58.28246059 C-8.19002672 51.41700262 -8.04800862 44.55162341 -7.90304042 37.68629895 C-7.82037705 33.7668315 -7.73931007 29.84734791 -7.66248179 25.92776138 C-7.57998615 21.72097333 -7.49003856 17.5143793 -7.39924717 13.30776215 C-7.37620466 12.0714019 -7.35316214 10.83504165 -7.32942137 9.56121594 C-7.3042394 8.45202484 -7.27905743 7.34283375 -7.25311238 6.2000308 C-7.23330284 5.23658309 -7.2134933 4.27313538 -7.19308347 3.28049228 C-6.84640422 -1.20173505 -3.80428735 0.00667136 0 0 Z " fill="#336CBE" transform="translate(257.0263214111328,54.875579833984375)"/>
<path d="M0 0 C4.12177332 2.22798558 7.06612103 4.88616882 10.3125 8.25 C14.07284358 12.09541922 17.89789688 15.78026739 21.9921875 19.26953125 C24.27182242 21.23427497 26.47411444 23.27348082 28.6875 25.3125 C50.40078906 44.76813821 73.57661303 52.04131971 102.55078125 53.75390625 C105 54 105 54 106 55 C105.81641048 60.97756617 104.49112434 66.83244627 103.09594727 72.62353516 C102.90288435 73.44395577 102.70982143 74.26437639 102.51090813 75.10965824 C101.8677309 77.83733288 101.21704183 80.56315814 100.56640625 83.2890625 C100.10115778 85.25597214 99.63641413 87.22300124 99.1721344 89.19013977 C98.16992978 93.43223277 97.16449855 97.67354305 96.15655518 101.91427612 C94.53424729 108.74046126 92.91946501 115.56841257 91.30615234 122.39672852 C90.74866638 124.75599887 90.19117118 127.11526704 89.63366699 129.47453308 C89.35440872 130.65633841 89.07515045 131.83814373 88.78742981 133.05576134 C87.92558856 136.70183522 87.06304662 140.34774271 86.20031738 143.99360657 C80.40628965 168.48267325 74.66566762 192.98415541 68.93233871 217.48749161 C67.57170013 223.3019217 66.21027322 229.11616719 64.84887695 234.93041992 C62.92761408 243.13596054 61.00651321 251.34153904 59.08570004 259.54718494 C53.74207501 282.37495666 48.39536062 305.2020047 43.04840088 328.02899551 C42.25198477 331.42902671 41.4555811 334.82906082 40.65917969 338.22909546 C32.4685331 373.1968099 24.27645429 408.16418886 16.08214569 443.13104534 C15.75003556 444.54822984 15.41792548 445.96541436 15.08581543 447.38259888 C14.92241401 448.07986684 14.75901259 448.7771348 14.59065962 449.4955321 C13.4731464 454.2642417 12.35574764 459.03297811 11.23840332 463.80172729 C3.17734217 498.2054924 -4.89962826 532.60546828 -13 567 C-13.33 567 -13.66 567 -14 567 C-14.10484589 543.18804749 -13.89831533 519.40911868 -13.25377214 495.60591996 C-13.14172594 491.42598292 -13.03557297 487.24589474 -12.92855835 483.06582642 C-12.71982619 474.94782996 -12.50587792 466.82997975 -12.28986973 458.71217396 C-12.11455618 452.11988718 -11.94125036 445.52755029 -11.76930046 438.93517494 C-11.74461093 437.98866338 -11.7199214 437.04215181 -11.69448371 436.06695807 C-11.64431188 434.14321122 -11.59414463 432.21946425 -11.5439819 430.29571716 C-11.07704123 412.39712134 -10.6040844 394.49868855 -10.12894946 376.60030863 C-9.72145992 361.24480971 -9.31920148 345.88918079 -8.9206543 330.53344727 C-8.45601075 312.63117091 -7.98823721 294.72898095 -7.51538509 276.82691938 C-7.46509127 274.9224936 -7.41480133 273.01806772 -7.3645153 271.11364174 C-7.33977902 270.17690216 -7.31504274 269.24016258 -7.28955688 268.27503696 C-7.11541389 261.6722211 -6.94352137 255.06934885 -6.77249336 248.46645164 C-6.56477528 240.44945202 -6.35362231 232.43255186 -6.13797326 224.41576149 C-6.02805838 220.32641956 -5.91973179 216.23705145 -5.81558418 212.14755821 C-5.72039762 208.41166425 -5.62078487 204.67591653 -5.5175091 200.94023768 C-5.46329638 198.93667725 -5.41390544 196.93298818 -5.36463934 194.92930001 C-5.31462693 193.16925825 -5.31462693 193.16925825 -5.26360416 191.37366009 C-5.23664402 190.35268598 -5.20968388 189.33171188 -5.18190676 188.27979916 C-5 186 -5 186 -4 185 C-2.09756238 184.90608704 -0.19161541 184.88256342 1.71313477 184.88647461 C2.9343251 184.88655014 4.15551544 184.88662567 5.41371155 184.88670349 C6.75627686 184.89181089 8.09884175 184.89702689 9.44140625 184.90234375 C10.80761158 184.90420801 12.17381757 184.90563187 13.5400238 184.90663147 C17.14201695 184.91045606 20.74397 184.92028583 24.34594727 184.93133545 C28.01903745 184.94155084 31.69213409 184.94612936 35.36523438 184.95117188 C42.57684123 184.96190816 49.788415 184.97898386 57 185 C57.00592453 183.07414109 57.01015738 181.14827692 57.01367188 179.22241211 C57.01620972 178.14994736 57.01874756 177.0774826 57.0213623 175.97251892 C56.99171858 171.84765793 56.6205248 167.79285731 56.21875 163.69140625 C55.88913334 158.12912516 55.96252781 152.57034566 56 147 C55.24831543 147.00523682 54.49663086 147.01047363 53.72216797 147.01586914 C34.45101964 147.13094251 15.2573796 146.74283015 -4 146 C-4.26097306 117.35545748 -3.59769741 88.75266053 -2.77319336 60.12109375 C-2.59365199 53.88405488 -2.42339499 47.64679953 -2.25558567 41.40943527 C-2.12442109 36.5694576 -1.98865205 31.72961785 -1.85142326 26.88980865 C-1.78661957 24.58523736 -1.72324184 22.28062551 -1.66131783 19.97597504 C-1.57521106 16.79730471 -1.48293855 13.61887433 -1.38891602 10.44042969 C-1.36445908 9.49227386 -1.34000214 8.54411804 -1.31480408 7.56723022 C-1.11429979 1.11429979 -1.11429979 1.11429979 0 0 Z " fill="#336CBE" transform="translate(309,132)"/>
<path d="M0 0 C0.63615234 1.54107422 0.63615234 1.54107422 1.28515625 3.11328125 C9.55367687 23.04130383 9.55367687 23.04130383 25.85546875 36.30859375 C37.37846677 40.37816485 48.53751746 41.28876337 60.6875 41.125 C62.61625977 41.11146484 62.61625977 41.11146484 64.58398438 41.09765625 C67.7227383 41.07431979 70.86139493 41.03845806 74 41 C74 48.26 74 55.52 74 63 C68.57754171 63.06955172 63.15668289 63.12907324 57.73413086 63.16479492 C55.89651188 63.17971405 54.05892743 63.20005668 52.22143555 63.22631836 C31.26001553 63.51800524 15.27611611 61.50071565 -0.37817383 46.58886719 C-14.82127017 32.51148865 -14.82127017 32.51148865 -18.80078125 26.09765625 C-20.92502705 23.58451322 -20.92502705 23.58451322 -24.578125 24.02734375 C-26.05907224 24.3179745 -27.53299881 24.64562946 -29 25 C-29.84111328 25.18836426 -30.68222656 25.37672852 -31.54882812 25.57080078 C-34.2908417 26.20445519 -37.02045308 26.877234 -39.75 27.5625 C-41.5978953 28.02639073 -43.44682306 28.48619261 -45.296875 28.94140625 C-46.10479492 29.14451416 -46.91271484 29.34762207 -47.74511719 29.55688477 C-50 30 -50 30 -54 30 C-53.88980184 30.57361708 -53.77960367 31.14723415 -53.66606617 31.73823357 C-38.64522126 109.92926909 -23.67430876 188.12971403 -8.76560402 266.34221125 C-5.42993072 283.84147112 -2.09409021 301.3406991 1.2421875 318.83984375 C1.43988173 319.87678273 1.63757595 320.91372171 1.84126091 321.98208308 C10.43158251 367.03909156 19.03935703 412.09275826 27.65345573 457.14522648 C29.95073351 469.16024528 32.24751654 481.1753584 34.54351413 493.19062191 C36.74733688 504.72351622 38.95156369 516.25633325 41.15625 527.7890625 C41.34902668 528.7974901 41.54180337 529.8059177 41.74042177 530.84490371 C46.50069314 555.74509318 51.27221522 580.64306138 56.06968683 605.53611153 C57.03856807 610.56360081 58.00647839 615.59127604 58.97364807 620.61909485 C59.10428298 621.29815575 59.23491789 621.97721665 59.36951143 622.67685515 C60.00610718 625.9860483 60.64262193 629.295257 61.27905369 632.6044817 C62.68325755 639.90303985 64.09316741 647.20046296 65.50796318 654.49697495 C66.33962783 658.79259204 67.16616756 663.08918262 67.99118042 667.3860817 C68.36250081 669.3139376 68.73605962 671.24136404 69.11212158 673.16830063 C69.61378391 675.73976503 70.10756638 678.31262028 70.59936523 680.88598633 C70.74391364 681.61619964 70.88846205 682.34641294 71.03739071 683.09875393 C71.86739698 687.49823165 72.13018612 691.54909625 72 696 C69.7536764 697.00904375 67.50356063 698.0073602 65.25 699 C64.61578125 699.28617188 63.9815625 699.57234375 63.328125 699.8671875 C59.91582896 701.36006702 57.79218083 702 54 702 C53.85996898 701.31677264 53.71993795 700.63354528 53.57566357 699.92961407 C49.13014358 678.23974242 44.68333824 656.55013442 40.23566866 634.86070347 C39.68805695 632.19021605 39.14045872 629.51972586 38.59286118 626.84923553 C30.70536196 588.38450783 22.81649837 549.92007612 14.8828125 511.46484375 C14.74460185 510.79490285 14.60639121 510.12496194 14.46399236 509.4347198 C12.95551857 502.12289008 11.44667701 494.81113627 9.93765259 487.49942017 C9.73680889 486.52626668 9.73680889 486.52626668 9.53190774 485.53345352 C9.39797185 484.88449032 9.26403596 484.23552711 9.12604141 483.56689835 C8.85486039 482.25293234 8.58367992 480.93896623 8.3125 479.625 C8.17737991 478.97029457 8.04225982 478.31558913 7.90304518 477.64104414 C-1.59691701 431.60937557 -11.02310641 385.56294586 -20.41589355 339.50929642 C-29.04263435 297.21209288 -37.70803218 254.92315552 -46.4322626 212.6459493 C-47.95140445 205.2840514 -49.46952328 197.92194261 -50.98754883 190.55981445 C-51.26194316 189.22908998 -51.53633783 187.89836559 -51.81073284 186.56764126 C-53.18258921 179.9145304 -54.55434912 173.26139966 -55.92607117 166.60826111 C-56.2019382 165.27026079 -56.47780534 163.93226049 -56.7536726 162.59426022 C-57.17025181 160.57378398 -57.58682618 158.55330675 -58.00338614 156.53282654 C-59.61155346 148.73258269 -61.22015075 140.93242784 -62.82958984 133.13244629 C-66.23628405 116.62160581 -69.639423 100.11004477 -73.03291035 83.59648418 C-74.63969966 75.77808819 -76.24990862 67.96041421 -77.86489069 60.14370632 C-79.08432561 54.23965459 -80.29754645 48.33434397 -81.50839233 42.42852402 C-82.00566087 40.00807672 -82.50495841 37.58804526 -83.00640869 35.16846085 C-83.69031849 31.86690082 -84.3669475 28.56393001 -85.04174805 25.26049805 C-85.34290291 23.81974836 -85.34290291 23.81974836 -85.65014172 22.34989262 C-86.56669842 17.82426013 -87.24111253 13.64672931 -87 9 C-77.13396605 7.81965618 -67.26719756 6.64567282 -57.39946175 5.47963715 C-52.81671558 4.93791117 -48.23424333 4.39405887 -43.65234375 3.84521484 C-39.22442145 3.31489656 -34.7958504 2.7903367 -30.36678696 2.26963806 C-28.68340971 2.07073243 -27.00026953 1.86980897 -25.31738663 1.66676331 C-16.85384977 0.64689936 -8.54356766 -0.27050874 0 0 Z " fill="#7FD858" transform="translate(128,147)"/>
<path d="M0 0 C2.68737662 1.27817845 5.07692313 2.67660717 7.4765625 4.43359375 C8.46897949 5.15168213 8.46897949 5.15168213 9.48144531 5.88427734 C10.18881836 6.39684082 10.89619141 6.9094043 11.625 7.4375 C35.77042446 24.67002769 58.20316998 35.23972627 88.12304688 36.60546875 C93.79241071 36.89620536 93.79241071 36.89620536 96 38 C96.11071636 119.0184469 96.00905929 200.03290539 95.23883685 316.77669641 C95.14808104 329.8851533 95.06749428 342.99365403 94.99069478 356.10219939 C94.90996539 369.86127819 94.82195486 383.62029369 94.7262429 397.37927663 C94.67345211 404.98967406 94.62358724 412.60006248 94.58185196 420.21052933 C94.54327221 427.23670562 94.49467057 434.26274914 94.43901825 441.28881073 C94.42027831 443.85764441 94.40492734 446.42650531 94.39316177 448.9953804 C94.37666368 452.48539039 94.34813097 455.97509622 94.31643677 459.46499634 C94.31448055 460.48485898 94.31252434 461.50472162 94.31050885 462.55548918 C94.29955996 463.48606686 94.28861107 464.41664453 94.2773304 465.37542152 C94.27201431 466.17787949 94.26669823 466.98033746 94.26122105 467.80711234 C93.97114209 470.24225522 93.21419039 471.88592048 92 474 C91.5288871 471.73167865 91.05777421 469.46335729 90.58666134 467.19503593 C90.15165686 465.10057003 89.71665231 463.00610414 89.28164768 460.91163826 C88.00386441 454.75935019 86.72608267 448.60706181 85.44830322 442.45477295 C84.88863141 439.76005041 84.32895935 437.06532792 83.76928711 434.37060547 C83.62575971 433.67954649 83.48223231 432.98848751 83.33435559 432.27648735 C81.37498094 422.84245065 79.41558475 413.40841842 77.45617008 403.97439003 C75.89264746 396.44646993 74.32913427 388.91854787 72.765625 381.390625 C72.60699816 380.62687545 72.44837133 379.86312591 72.28493762 379.07623243 C67.8296351 357.62501936 63.37468558 336.17373301 58.920129 314.72236502 C57.85610539 309.59846387 56.79205323 304.47456866 55.72798157 299.35067749 C55.57907111 298.63361944 55.43016065 297.91656139 55.27673775 297.17777431 C54.53313218 293.59704829 53.78952285 290.01632305 53.04591084 286.43559837 C51.47741843 278.88278752 49.90899707 271.32996191 48.34075528 263.77709901 C47.39509542 259.22273135 46.44919061 254.66841461 45.50325012 250.11410522 C44.47168308 245.14720136 43.44114873 240.18008493 42.41142273 235.21279907 C40.20547022 224.57674943 37.99267216 213.94235678 35.74374676 203.31529808 C34.79122982 198.81392152 33.84262883 194.31172306 32.89406013 189.80951309 C32.24108975 186.72002931 31.58164343 183.6319755 30.92198181 180.54391479 C30.53106293 178.68966711 30.14046411 176.83535192 29.75024414 174.98095703 C29.57104746 174.15233784 29.39185078 173.32371864 29.20722389 172.46998978 C28.32381395 168.23517735 27.80465009 164.3550305 28 160 C34.61928006 158.71306464 41.23966058 157.43191304 47.86083984 156.15478516 C50.11337658 155.71959545 52.36565761 155.28308006 54.61767578 154.84521484 C57.85382921 154.21624011 61.09087083 153.59203125 64.328125 152.96875 C65.33554749 152.77188599 66.34296997 152.57502197 67.38092041 152.37219238 C68.32159363 152.19200562 69.26226685 152.01181885 70.23144531 151.82617188 C71.05751282 151.66628784 71.88358032 151.50640381 72.73468018 151.3416748 C75 151 75 151 79 151 C78.81824219 150.23333008 78.63648438 149.46666016 78.44921875 148.67675781 C77.62821763 145.20223897 76.81403672 141.7261568 76 138.25 C75.71382813 137.0434375 75.42765625 135.836875 75.1328125 134.59375 C74.72675781 132.85351562 74.72675781 132.85351562 74.3125 131.078125 C74.06113281 130.00981445 73.80976563 128.94150391 73.55078125 127.84082031 C73 125 73 125 73 121 C71.74453369 121.18175781 70.48906738 121.36351562 69.19555664 121.55078125 C64.50553969 122.22805559 59.81436213 122.89697815 55.12280273 123.56347656 C53.09839163 123.85223979 51.07429545 124.14322037 49.05053711 124.43652344 C46.12955865 124.85945753 43.20751365 125.27421492 40.28515625 125.6875 C39.39103531 125.81874268 38.49691437 125.94998535 37.57569885 126.08520508 C36.7154863 126.20532959 35.85527374 126.3254541 34.96899414 126.44921875 C34.22508926 126.55580811 33.48118439 126.66239746 32.71473694 126.7722168 C28.80950975 127.09988949 24.91650325 127.0422711 21 127 C18.25577198 111.32825683 15.51735229 95.65551057 12.78582001 79.98155022 C11.51735335 72.70368786 10.24699696 65.42616489 8.97216797 58.14941406 C7.86087611 51.8061083 6.75315395 45.46219126 5.64969206 39.11751854 C5.06543738 35.75891226 4.47941468 32.40063646 3.88911438 29.04308701 C3.23061749 25.29238475 2.57843551 21.54063563 1.92773438 17.78857422 C1.73136887 16.67870651 1.53500336 15.56883881 1.33268738 14.42533875 C0.49640265 9.56770917 -0.26360413 4.95165807 0 0 Z " fill="#7FD858" transform="translate(104,204)"/>
</svg>
