<svg xmlns="http://www.w3.org/2000/svg" xmlns:v="https://svgstorm.com"
viewBox = "0 0 279 263"
width="279"
height="263">
<g fill="None" fill-opacity="0.0" stroke="#000000" stroke-opacity="0.00" stroke-width="0.3"><path d="
M 0.00 263.00 
L 279.00 263.00
L 279.00 0.00
L 0.00 0.00
L 0.00 263.00
M 178.00 54.00 
C 180.67 54.33 184.34 54.38 187.00 54.00
C 193.74 52.17 194.79 49.96 202.00 52.00
C 205.08 52.47 209.93 52.55 213.00 52.00
C 218.12 50.38 220.78 44.81 226.00 44.00
C 228.28 43.65 230.72 44.35 233.00 44.00
C 236.35 42.98 238.25 41.38 241.00 39.00
C 246.50 34.25 252.15 37.68 259.00 39.00
C 269.28 40.98 269.44 42.95 267.07 52.07 C 264.71 61.20 264.60 64.30 263.00 73.00
C 262.60 75.20 261.43 76.55 261.00 78.00
C 259.72 84.75 258.17 91.32 257.00 98.00
C 256.45 101.10 255.69 104.34 255.00 107.00
C 254.72 108.82 254.38 110.21 254.00 112.00
C 253.46 114.56 253.15 116.90 252.00 119.00
C 251.99 119.50 252.00 120.00 252.00 120.00
C 251.83 127.08 248.63 134.61 247.00 141.00
C 246.49 144.48 245.73 147.63 245.00 151.00
C 242.61 161.95 241.35 175.01 237.00 185.00
C 237.03 185.50 237.00 186.00 237.00 186.00
C 235.62 194.43 232.96 203.10 231.00 211.00
C 230.76 212.91 230.37 214.24 230.00 216.00
C 229.22 219.73 227.76 223.73 227.00 227.00
C 225.98 235.23 224.76 243.24 222.00 251.00
C 219.37 261.96 211.47 256.33 203.00 254.00
C 195.87 252.96 182.92 252.94 184.00 244.00 C 185.08 235.06 181.47 227.37 177.25 220.75 C 173.02 214.13 167.75 210.15 161.00 207.00
C 157.75 205.48 153.15 203.51 150.00 203.00
C 138.97 202.78 128.82 204.44 120.00 211.00
C 117.57 213.12 114.02 216.59 112.00 219.00
C 109.76 222.13 109.28 227.34 107.00 230.00
C 103.99 233.51 101.36 230.86 98.00 230.00
C 88.21 228.57 78.78 225.63 69.00 224.00
C 70.26 212.74 74.53 202.24 76.00 191.00
C 76.36 187.06 76.74 185.18 78.00 182.00
C 82.90 158.73 91.63 135.08 94.00 112.00
C 94.39 108.19 94.99 106.06 96.00 103.00
C 96.89 98.32 97.43 93.53 99.00 89.00
C 99.35 86.93 99.63 84.59 100.00 83.00
C 100.10 80.50 101.35 78.93 102.00 77.00
C 106.93 53.61 113.50 30.58 118.00 7.00
C 126.37 8.46 134.42 11.23 143.00 12.00
C 141.07 21.52 147.88 34.39 158.01 34.99 C 168.14 35.59 164.84 54.00 178.00 54.00
M 85.00 22.00 
C 85.75 23.28 89.81 27.12 91.00 28.00
C 92.65 29.04 94.22 29.41 96.00 30.00
C 98.25 30.43 100.73 29.68 103.00 30.00
C 101.98 45.60 79.00 31.33 78.00 21.00
C 64.53 9.02 66.00 32.55 66.00 40.00
C 66.13 41.73 66.13 44.33 66.00 46.00
C 66.00 52.00 66.00 58.00 66.00 64.00
C 66.00 66.77 65.20 69.96 65.00 72.00
C 65.00 84.86 65.00 97.63 65.00 111.00
C 65.00 115.41 64.35 120.34 64.00 124.00
C 64.00 138.33 64.00 152.67 64.00 167.00
C 64.00 170.75 63.29 174.99 63.00 178.00
C 63.00 183.20 63.54 189.96 63.00 195.00 C 62.46 200.04 64.90 206.86 62.00 211.00
C 60.60 213.00 59.27 213.53 56.00 213.00
C 56.66 207.17 54.68 200.01 57.00 195.00
C 57.00 183.00 57.00 171.00 57.00 159.00
C 57.00 150.98 57.30 142.26 58.00 135.00
C 58.00 125.00 58.00 115.00 58.00 105.00
C 58.00 96.07 57.91 86.63 59.00 79.00
C 59.00 71.33 59.00 63.67 59.00 56.00
C 59.00 52.64 59.82 48.60 60.00 46.00
C 59.60 35.87 60.27 23.92 60.00 13.00
C 67.67 13.00 75.33 13.00 83.00 13.00
C 83.12 16.14 84.48 18.93 85.00 22.00
M 82.00 39.00 
C 86.45 41.96 91.65 41.85 96.00 44.00
C 99.92 45.94 98.40 48.21 98.00 51.00
C 97.22 56.46 95.99 61.59 95.00 67.00
C 94.39 70.36 95.35 75.41 93.00 78.00
C 95.69 80.63 90.75 85.40 90.00 88.00
C 86.40 112.66 77.63 136.58 73.00 161.00
C 73.14 163.40 73.30 165.96 72.00 168.00
C 70.35 160.41 70.32 149.52 72.00 142.00
C 72.00 128.00 72.00 114.00 72.00 100.00
C 72.00 96.90 72.77 93.36 73.00 91.00
C 73.00 86.00 73.00 81.00 73.00 76.00
C 78.00 76.00 83.00 76.00 88.00 76.00
C 87.41 73.16 89.22 69.02 87.00 67.00
C 83.87 64.81 76.52 68.64 73.00 67.00
C 73.66 58.17 71.67 48.01 74.00 40.00
C 74.00 38.18 73.13 33.54 74.00 32.00
C 75.11 30.03 80.83 38.08 82.00 39.00
M 31.00 37.00 
C 35.92 42.12 40.59 47.30 49.00 45.00
C 51.10 51.97 43.16 49.69 39.00 50.00
C 37.18 51.19 38.97 54.00 37.00 55.00
C 42.69 57.26 50.73 57.57 49.00 67.00 C 47.27 76.43 49.84 82.38 49.00 91.00 C 48.16 99.62 49.58 107.82 49.00 116.00 C 48.42 124.18 50.13 131.64 48.02 139.02 C 45.92 146.41 51.21 156.90 47.00 163.00
C 46.10 164.30 44.64 166.30 42.00 165.00
C 43.21 171.27 44.51 181.02 46.31 186.69 C 48.10 192.37 50.60 203.74 43.00 204.00
C 42.36 199.34 41.20 194.15 40.00 190.00
C 40.93 192.27 36.01 184.16 40.00 188.00
C 39.00 179.60 36.28 171.27 35.07 162.93 C 33.86 154.58 31.11 146.27 30.02 137.98 C 28.94 129.68 25.92 121.08 25.07 112.93 C 24.22 104.77 19.75 96.48 19.23 88.77 C 18.71 81.06 16.15 72.13 15.67 64.33 C 15.19 56.53 8.85 46.45 11.00 39.00
C 12.65 33.28 24.94 35.28 30.00 34.00
C 29.47 35.28 30.97 35.86 31.00 37.00 Z"/>
</g>
<g fill="None" fill-opacity="0.0" stroke="#ED7F2C" stroke-opacity="1.00" stroke-width="0.3"><path d="
M 102.00 77.00 
C 101.46 79.57 100.44 82.83 100.00 85.00
C 100.06 86.96 99.46 87.66 99.00 89.00
C 97.43 93.53 96.89 98.32 96.00 103.00
C 95.44 105.94 94.56 109.48 94.00 112.00
C 91.63 135.08 82.90 158.73 78.00 182.00
C 77.35 185.07 76.68 188.35 76.00 191.00
C 74.53 202.24 70.26 212.74 69.00 224.00
C 78.78 225.63 88.21 228.57 98.00 230.00
C 100.64 230.39 104.69 231.89 107.00 230.00
C 109.28 227.34 109.76 222.13 112.00 219.00
C 114.16 215.98 117.08 213.17 120.00 211.00
C 128.82 204.44 138.97 202.78 150.00 203.00
C 155.76 203.12 156.80 204.09 161.00 207.00
C 167.75 210.15 173.02 214.13 177.25 220.75 C 181.47 227.37 185.08 235.06 184.00 244.00 C 182.92 252.94 195.87 252.96 203.00 254.00
C 208.76 254.84 214.15 256.45 220.00 257.00
C 220.91 255.17 220.34 252.26 222.00 251.00
C 224.76 243.24 225.98 235.23 227.00 227.00
C 227.48 223.13 228.90 219.34 230.00 216.00
C 230.37 214.24 230.76 212.91 231.00 211.00
C 231.87 203.93 232.57 191.46 237.00 186.00
C 237.00 186.00 237.03 185.50 237.00 185.00
C 236.30 174.51 241.75 160.38 245.00 151.00
C 245.73 147.63 246.49 144.48 247.00 141.00
C 247.87 135.03 248.27 124.58 252.00 120.00
C 252.00 120.00 251.99 119.50 252.00 119.00
C 252.07 115.98 253.21 114.36 254.00 112.00
C 254.38 110.21 254.72 108.82 255.00 107.00
C 255.51 103.66 256.18 100.83 257.00 98.00
C 258.17 91.32 259.72 84.75 261.00 78.00
C 261.31 76.37 262.66 74.25 263.00 73.00
C 264.60 64.30 264.71 61.20 267.07 52.07 C 269.44 42.95 269.28 40.98 259.00 39.00
C 256.50 39.02 242.60 42.54 241.00 39.00
C 238.25 41.38 236.35 42.98 233.00 44.00
C 230.58 44.73 227.89 43.86 226.00 44.00
C 220.78 44.81 218.12 50.38 213.00 52.00
C 209.30 53.17 205.63 53.03 202.00 52.00
C 194.79 49.96 193.74 52.17 187.00 54.00
C 183.71 54.89 181.22 54.80 178.00 54.00
C 164.84 54.00 168.14 35.59 158.01 34.99 C 147.88 34.39 141.07 21.52 143.00 12.00
C 134.42 11.23 126.37 8.46 118.00 7.00
C 113.50 30.58 106.93 53.61 102.00 77.00
M 260.00 47.00 
C 245.84 114.25 230.06 180.95 215.00 248.00
C 206.82 248.70 199.95 244.35 192.00 244.00
C 195.49 194.32 119.24 176.38 101.00 223.00
C 93.37 221.24 85.77 219.30 78.00 218.00
C 93.11 150.64 108.89 83.41 124.00 16.00
C 136.17 14.70 135.30 26.16 140.77 33.23 C 146.24 40.30 155.50 41.18 159.31 48.69 C 163.11 56.21 171.19 62.38 180.00 62.00 C 188.81 61.61 200.76 59.43 210.00 60.00 C 219.24 60.57 225.86 51.73 235.07 51.07 C 244.28 50.42 249.78 38.58 260.00 47.00 Z"/>
</g>
<g fill="None" fill-opacity="0.0" stroke="#3D73C0" stroke-opacity="1.00" stroke-width="0.3"><path d="
M 60.00 46.00 
C 60.14 49.48 59.26 53.29 59.00 56.00
C 59.00 63.67 59.00 71.33 59.00 79.00
C 59.00 87.68 58.77 97.09 58.00 105.00
C 58.00 115.00 58.00 125.00 58.00 135.00
C 58.00 143.02 57.70 151.74 57.00 159.00
C 57.00 171.00 57.00 183.00 57.00 195.00
C 57.00 200.67 57.00 206.33 57.00 212.00
C 58.83 212.23 60.47 211.93 62.00 211.00
C 64.90 206.86 62.46 200.04 63.00 195.00 C 63.54 189.96 63.00 183.20 63.00 178.00
C 63.00 174.25 63.71 170.01 64.00 167.00
C 64.00 152.67 64.00 138.33 64.00 124.00
C 64.00 119.59 64.65 114.66 65.00 111.00
C 65.00 97.63 65.00 84.86 65.00 72.00
C 65.00 69.23 65.80 66.04 66.00 64.00
C 66.00 58.00 66.00 52.00 66.00 46.00
C 66.00 44.00 66.00 42.00 66.00 40.00
C 66.00 32.55 64.53 9.02 78.00 21.00
C 83.65 26.03 95.66 45.72 102.00 31.00
C 100.12 30.53 97.07 32.06 96.00 30.00
C 94.22 29.41 92.65 29.04 91.00 28.00
C 88.84 26.64 86.12 24.27 85.00 22.00
C 84.48 18.93 83.12 16.14 83.00 13.00
C 75.33 13.00 67.67 13.00 60.00 13.00
C 60.27 23.92 59.60 35.87 60.00 46.00 Z"/>
</g>
<g fill="None" fill-opacity="0.0" stroke="#FEF7F2" stroke-opacity="0.19" stroke-width="0.3"><path d="
M 260.00 47.00 
C 249.78 38.58 244.28 50.42 235.07 51.07 C 225.86 51.73 219.24 60.57 210.00 60.00 C 200.76 59.43 188.81 61.61 180.00 62.00 C 171.19 62.38 163.11 56.21 159.31 48.69 C 155.50 41.18 146.24 40.30 140.77 33.23 C 135.30 26.16 136.17 14.70 124.00 16.00
C 108.89 83.41 93.11 150.64 78.00 218.00
C 85.77 219.30 93.37 221.24 101.00 223.00
C 119.24 176.38 195.49 194.32 192.00 244.00
C 199.95 244.35 206.82 248.70 215.00 248.00
C 230.06 180.95 245.84 114.25 260.00 47.00
M 187.00 70.00 
C 189.66 69.57 192.90 67.25 196.00 67.00
C 205.84 66.22 217.06 68.81 225.70 62.69 C 234.33 56.58 243.22 56.97 252.00 52.00
C 247.87 66.64 245.23 81.53 242.00 96.00
C 235.18 96.89 229.81 92.24 223.00 93.00
C 222.79 96.01 221.44 98.77 222.00 102.00
C 226.27 103.98 239.36 102.29 238.99 109.01 C 238.63 115.73 234.98 121.89 234.67 128.67 C 234.36 135.45 230.20 141.15 230.00 148.00
C 229.58 150.63 228.54 152.88 228.00 155.00
C 224.30 183.42 214.09 210.86 209.00 239.00
C 193.95 240.11 197.59 220.42 189.70 211.30 C 181.80 202.19 174.35 195.21 162.92 191.08 C 151.50 186.94 133.72 186.49 122.93 191.93 C 112.13 197.36 103.54 203.60 98.00 214.00
C 85.50 216.03 87.33 207.17 89.98 198.98 C 92.62 190.79 93.31 182.48 95.33 174.33 C 97.35 166.18 99.29 159.11 100.98 150.98 C 102.66 142.84 104.94 134.82 106.78 126.78 C 108.61 118.74 109.86 110.90 111.98 102.98 C 114.09 95.05 115.07 86.71 118.00 79.00
C 125.04 79.42 137.20 84.94 136.00 73.00
C 132.92 69.56 118.95 72.41 120.01 65.99 C 121.07 59.57 123.53 53.25 124.93 46.93 C 126.32 40.61 126.75 33.10 130.00 28.00
C 132.09 42.28 146.42 43.51 153.30 53.70 C 160.19 63.88 173.98 71.85 187.00 70.00 Z"/>
</g>
<g fill="None" fill-opacity="0.0" stroke="#779DD3" stroke-opacity="1.00" stroke-width="0.3"><path d="
M 96.00 30.00 
C 97.07 32.06 100.12 30.53 102.00 31.00
C 95.66 45.72 83.65 26.03 78.00 21.00
C 79.00 31.33 101.98 45.60 103.00 30.00
C 100.73 29.68 98.25 30.43 96.00 30.00 Z"/>
</g>
<g fill="None" fill-opacity="0.0" stroke="#83A5D5" stroke-opacity="1.00" stroke-width="0.3"><path d="
M 91.00 28.00 
C 89.81 27.12 85.75 23.28 85.00 22.00
C 86.12 24.27 88.84 26.64 91.00 28.00 Z"/>
</g>
<g fill="None" fill-opacity="0.0" stroke="#EC781D" stroke-opacity="1.00" stroke-width="0.3"><path d="
M 228.00 155.00 
C 228.36 152.21 229.35 150.25 230.00 148.00
C 230.20 141.15 234.36 135.45 234.67 128.67 C 234.98 121.89 238.63 115.73 238.99 109.01 C 239.36 102.29 226.27 103.98 222.00 102.00
C 221.44 98.77 222.79 96.01 223.00 93.00
C 229.81 92.24 235.18 96.89 242.00 96.00
C 245.23 81.53 247.87 66.64 252.00 52.00
C 243.22 56.97 234.33 56.58 225.70 62.69 C 217.06 68.81 205.84 66.22 196.00 67.00
C 192.99 67.59 190.91 69.79 187.00 70.00
C 173.98 71.85 160.19 63.88 153.30 53.70 C 146.42 43.51 132.09 42.28 130.00 28.00
C 126.75 33.10 126.32 40.61 124.93 46.93 C 123.53 53.25 121.07 59.57 120.01 65.99 C 118.95 72.41 132.92 69.56 136.00 73.00
C 137.20 84.94 125.04 79.42 118.00 79.00
C 115.07 86.71 114.09 95.05 111.98 102.98 C 109.86 110.90 108.61 118.74 106.78 126.78 C 104.94 134.82 102.66 142.84 100.98 150.98 C 99.29 159.11 97.35 166.18 95.33 174.33 C 93.31 182.48 92.62 190.79 89.98 198.98 C 87.33 207.17 85.50 216.03 98.00 214.00
C 103.54 203.60 112.13 197.36 122.93 191.93 C 133.72 186.49 151.50 186.94 162.92 191.08 C 174.35 195.21 181.80 202.19 189.70 211.30 C 197.59 220.42 193.95 240.11 209.00 239.00
C 214.09 210.86 224.30 183.42 228.00 155.00
M 172.00 81.00 
C 172.70 84.27 170.57 86.77 171.00 90.00
C 163.36 89.88 156.47 86.94 149.00 86.00
C 149.12 82.86 150.48 80.07 151.00 77.00
C 157.86 78.80 164.84 80.25 172.00 81.00
M 208.00 89.00 
C 209.90 104.80 193.12 93.68 185.00 94.00
C 184.97 90.83 185.87 87.88 187.00 85.00
C 194.03 86.17 200.86 88.15 208.00 89.00 Z"/>
</g>
<g fill="None" fill-opacity="0.0" stroke="#83A6D7" stroke-opacity="1.00" stroke-width="0.3"><path d="
M 74.00 32.00 
C 76.98 33.93 79.10 37.07 82.00 39.00
C 80.83 38.08 75.11 30.03 74.00 32.00 Z"/>
</g>
<g fill="None" fill-opacity="0.0" stroke="#3A71BF" stroke-opacity="1.00" stroke-width="0.3"><path d="
M 74.00 40.00 
C 74.00 48.67 74.00 57.33 74.00 66.00
C 78.17 66.64 83.66 64.71 87.00 67.00
C 89.22 69.02 87.41 73.16 88.00 76.00
C 83.00 76.00 78.00 76.00 73.00 76.00
C 73.00 81.00 73.00 86.00 73.00 91.00
C 73.00 94.10 72.23 97.64 72.00 100.00
C 72.00 114.00 72.00 128.00 72.00 142.00
C 72.00 148.32 72.67 155.46 73.00 161.00
C 77.63 136.58 86.40 112.66 90.00 88.00
C 90.51 84.49 91.35 81.48 92.00 78.00
C 92.74 74.01 93.94 70.43 95.00 67.00
C 95.99 61.59 97.22 56.46 98.00 51.00
C 97.98 48.68 98.19 45.49 96.00 44.00
C 91.65 41.85 86.45 41.96 82.00 39.00
C 79.10 37.07 76.98 33.93 74.00 32.00
C 73.13 33.54 74.00 38.18 74.00 40.00 Z"/>
</g>
<g fill="None" fill-opacity="0.0" stroke="#86DA62" stroke-opacity="0.51" stroke-width="0.3"><path d="
M 11.00 39.00 
C 14.46 37.31 30.08 42.13 31.00 37.00
C 30.97 35.86 29.47 35.28 30.00 34.00
C 24.94 35.28 12.65 33.28 11.00 39.00 Z"/>
</g>
<g fill="None" fill-opacity="0.0" stroke="#ED7D28" stroke-opacity="0.74" stroke-width="0.3"><path d="
M 241.00 39.00 
C 242.60 42.54 256.50 39.02 259.00 39.00
C 252.15 37.68 246.50 34.25 241.00 39.00 Z"/>
</g>
<g fill="None" fill-opacity="0.0" stroke="#91DD70" stroke-opacity="0.96" stroke-width="0.3"><path d="
M 11.00 39.00 
C 8.85 46.45 15.19 56.53 15.67 64.33 C 16.15 72.13 18.71 81.06 19.23 88.77 C 19.75 96.48 24.22 104.77 25.07 112.93 C 25.92 121.08 28.94 129.68 30.02 137.98 C 31.11 146.27 33.86 154.58 35.07 162.93 C 36.28 171.27 39.00 179.60 40.00 188.00
C 40.06 188.49 39.82 189.58 40.00 190.00
C 41.20 194.15 42.36 199.34 43.00 204.00
C 50.60 203.74 48.10 192.37 46.31 186.69 C 44.51 181.02 43.21 171.27 42.00 165.00
C 40.01 154.68 36.26 143.86 35.02 132.98 C 33.79 122.10 30.57 109.88 28.68 99.32 C 26.79 88.77 23.76 75.76 22.22 65.78 C 20.68 55.80 13.03 41.19 26.00 40.00
C 28.37 45.04 33.30 49.71 39.00 50.00
C 43.16 49.69 51.10 51.97 49.00 45.00
C 40.59 47.30 35.92 42.12 31.00 37.00
C 30.08 42.13 14.46 37.31 11.00 39.00 Z"/>
</g>
<g fill="None" fill-opacity="0.0" stroke="#F9FDF7" stroke-opacity="0.16" stroke-width="0.3"><path d="
M 42.00 165.00 
C 44.64 166.30 46.10 164.30 47.00 163.00
C 49.03 157.99 42.85 150.74 43.07 144.93 C 43.30 139.12 41.00 131.01 40.00 125.00 C 39.00 118.98 36.74 112.28 36.01 105.99 C 35.27 99.70 32.77 93.36 32.00 87.00
C 36.17 87.03 39.88 85.29 44.00 85.00
C 44.09 83.30 44.47 77.10 42.00 79.00
C 38.70 77.50 34.77 80.48 31.00 80.00
C 28.24 70.21 26.19 60.22 25.00 50.00
C 29.13 51.07 32.37 55.11 37.00 55.00
C 38.97 54.00 37.18 51.19 39.00 50.00
C 33.30 49.71 28.37 45.04 26.00 40.00
C 13.03 41.19 20.68 55.80 22.22 65.78 C 23.76 75.76 26.79 88.77 28.68 99.32 C 30.57 109.88 33.79 122.10 35.02 132.98 C 36.26 143.86 40.01 154.68 42.00 165.00 Z"/>
</g>
<g fill="None" fill-opacity="0.0" stroke="#D1E7F5" stroke-opacity="0.44" stroke-width="0.3"><path d="
M 66.00 46.00 
C 66.13 44.33 66.13 41.73 66.00 40.00
C 66.00 42.00 66.00 44.00 66.00 46.00 Z"/>
</g>
<g fill="None" fill-opacity="0.0" stroke="#7198D1" stroke-opacity="1.00" stroke-width="0.3"><path d="
M 87.00 67.00 
C 83.66 64.71 78.17 66.64 74.00 66.00
C 74.00 57.33 74.00 48.67 74.00 40.00
C 71.67 48.01 73.66 58.17 73.00 67.00
C 76.52 68.64 83.87 64.81 87.00 67.00 Z"/>
</g>
<g fill="None" fill-opacity="0.0" stroke="#799ED3" stroke-opacity="1.00" stroke-width="0.3"><path d="
M 98.00 51.00 
C 98.40 48.21 99.92 45.94 96.00 44.00
C 98.19 45.49 97.98 48.68 98.00 51.00 Z"/>
</g>
<g fill="None" fill-opacity="0.0" stroke="#F4B37F" stroke-opacity="1.00" stroke-width="0.3"><path d="
M 233.00 44.00 
C 230.72 44.35 228.28 43.65 226.00 44.00
C 227.89 43.86 230.58 44.73 233.00 44.00 Z"/>
</g>
<g fill="None" fill-opacity="0.0" stroke="#749AD1" stroke-opacity="1.00" stroke-width="0.3"><path d="
M 59.00 56.00 
C 59.26 53.29 60.14 49.48 60.00 46.00
C 59.82 48.60 59.00 52.64 59.00 56.00 Z"/>
</g>
<g fill="None" fill-opacity="0.0" stroke="#89DB66" stroke-opacity="1.00" stroke-width="0.3"><path d="
M 47.00 163.00 
C 51.21 156.90 45.92 146.41 48.02 139.02 C 50.13 131.64 48.42 124.18 49.00 116.00 C 49.58 107.82 48.16 99.62 49.00 91.00 C 49.84 82.38 47.27 76.43 49.00 67.00 C 50.73 57.57 42.69 57.26 37.00 55.00
C 32.37 55.11 29.13 51.07 25.00 50.00
C 26.19 60.22 28.24 70.21 31.00 80.00
C 34.77 80.48 38.70 77.50 42.00 79.00
C 44.47 77.10 44.09 83.30 44.00 85.00
C 39.88 85.29 36.17 87.03 32.00 87.00
C 32.77 93.36 35.27 99.70 36.01 105.99 C 36.74 112.28 39.00 118.98 40.00 125.00 C 41.00 131.01 43.30 139.12 43.07 144.93 C 42.85 150.74 49.03 157.99 47.00 163.00 Z"/>
</g>
<g fill="None" fill-opacity="0.0" stroke="#F2B17D" stroke-opacity="1.00" stroke-width="0.3"><path d="
M 213.00 52.00 
C 209.93 52.55 205.08 52.47 202.00 52.00
C 205.63 53.03 209.30 53.17 213.00 52.00 Z"/>
</g>
<g fill="None" fill-opacity="0.0" stroke="#F5B583" stroke-opacity="1.00" stroke-width="0.3"><path d="
M 187.00 54.00 
C 184.34 54.38 180.67 54.33 178.00 54.00
C 181.22 54.80 183.71 54.89 187.00 54.00 Z"/>
</g>
<g fill="None" fill-opacity="0.0" stroke="#87A8D8" stroke-opacity="1.00" stroke-width="0.3"><path d="
M 65.00 72.00 
C 65.20 69.96 66.00 66.77 66.00 64.00
C 65.80 66.04 65.00 69.23 65.00 72.00 Z"/>
</g>
<g fill="None" fill-opacity="0.0" stroke="#98B5DD" stroke-opacity="0.80" stroke-width="0.3"><path d="
M 92.00 78.00 
C 92.01 77.93 93.00 78.00 93.00 78.00
C 95.35 75.41 94.39 70.36 95.00 67.00
C 93.94 70.43 92.74 74.01 92.00 78.00 Z"/>
</g>
<g fill="None" fill-opacity="0.0" stroke="#F5B786" stroke-opacity="1.00" stroke-width="0.3"><path d="
M 187.00 70.00 
C 190.91 69.79 192.99 67.59 196.00 67.00
C 192.90 67.25 189.66 69.57 187.00 70.00 Z"/>
</g>
<g fill="None" fill-opacity="0.0" stroke="#F2BE95" stroke-opacity="1.00" stroke-width="0.3"><path d="
M 261.00 78.00 
C 261.43 76.55 262.60 75.20 263.00 73.00
C 262.66 74.25 261.31 76.37 261.00 78.00 Z"/>
</g>
<g fill="None" fill-opacity="0.0" stroke="#F8D5BA" stroke-opacity="0.87" stroke-width="0.3"><path d="
M 100.00 83.00 
C 99.98 83.50 99.98 84.50 100.00 85.00
C 100.44 82.83 101.46 79.57 102.00 77.00
C 101.35 78.93 100.10 80.50 100.00 83.00 Z"/>
</g>
<g fill="None" fill-opacity="0.0" stroke="#FEF8F4" stroke-opacity="0.18" stroke-width="0.3"><path d="
M 172.00 81.00 
C 164.84 80.25 157.86 78.80 151.00 77.00
C 150.48 80.07 149.12 82.86 149.00 86.00
C 156.47 86.94 163.36 89.88 171.00 90.00
C 170.57 86.77 172.70 84.27 172.00 81.00 Z"/>
</g>
<g fill="None" fill-opacity="0.0" stroke="#BDCADB" stroke-opacity="0.47" stroke-width="0.3"><path d="
M 90.00 88.00 
C 90.75 85.40 95.69 80.63 93.00 78.00
C 93.00 78.00 92.01 77.93 92.00 78.00
C 91.35 81.48 90.51 84.49 90.00 88.00 Z"/>
</g>
<g fill="None" fill-opacity="0.0" stroke="#8EADD8" stroke-opacity="0.93" stroke-width="0.3"><path d="
M 58.00 105.00 
C 58.77 97.09 59.00 87.68 59.00 79.00
C 57.91 86.63 58.00 96.07 58.00 105.00 Z"/>
</g>
<g fill="None" fill-opacity="0.0" stroke="#FBE2CE" stroke-opacity="0.62" stroke-width="0.3"><path d="
M 99.00 89.00 
C 99.46 87.66 100.06 86.96 100.00 85.00
C 99.98 84.50 99.98 83.50 100.00 83.00
C 99.63 84.59 99.35 86.93 99.00 89.00 Z"/>
</g>
<g fill="None" fill-opacity="0.0" stroke="#FEF7F2" stroke-opacity="0.20" stroke-width="0.3"><path d="
M 208.00 89.00 
C 200.86 88.15 194.03 86.17 187.00 85.00
C 185.87 87.88 184.97 90.83 185.00 94.00
C 193.12 93.68 209.90 104.80 208.00 89.00 Z"/>
</g>
<g fill="None" fill-opacity="0.0" stroke="#80A4D6" stroke-opacity="1.00" stroke-width="0.3"><path d="
M 72.00 100.00 
C 72.23 97.64 73.00 94.10 73.00 91.00
C 72.77 93.36 72.00 96.90 72.00 100.00 Z"/>
</g>
<g fill="None" fill-opacity="0.0" stroke="#F2B584" stroke-opacity="1.00" stroke-width="0.3"><path d="
M 255.00 107.00 
C 255.69 104.34 256.45 101.10 257.00 98.00
C 256.18 100.83 255.51 103.66 255.00 107.00 Z"/>
</g>
<g fill="None" fill-opacity="0.0" stroke="#F7D8BA" stroke-opacity="0.69" stroke-width="0.3"><path d="
M 94.00 112.00 
C 94.56 109.48 95.44 105.94 96.00 103.00
C 94.99 106.06 94.39 108.19 94.00 112.00 Z"/>
</g>
<g fill="None" fill-opacity="0.0" stroke="#7DA2D5" stroke-opacity="1.00" stroke-width="0.3"><path d="
M 64.00 124.00 
C 64.35 120.34 65.00 115.41 65.00 111.00
C 64.65 114.66 64.00 119.59 64.00 124.00 Z"/>
</g>
<g fill="None" fill-opacity="0.0" stroke="#F4B480" stroke-opacity="1.00" stroke-width="0.3"><path d="
M 252.00 119.00 
C 253.15 116.90 253.46 114.56 254.00 112.00
C 253.21 114.36 252.07 115.98 252.00 119.00 Z"/>
</g>
<g fill="None" fill-opacity="0.0" stroke="#F3AE78" stroke-opacity="1.00" stroke-width="0.3"><path d="
M 247.00 141.00 
C 248.63 134.61 251.83 127.08 252.00 120.00
C 248.27 124.58 247.87 135.03 247.00 141.00 Z"/>
</g>
<g fill="None" fill-opacity="0.0" stroke="#7EA0D0" stroke-opacity="1.00" stroke-width="0.3"><path d="
M 57.00 159.00 
C 57.70 151.74 58.00 143.02 58.00 135.00
C 57.30 142.26 57.00 150.98 57.00 159.00 Z"/>
</g>
<g fill="None" fill-opacity="0.0" stroke="#7199D1" stroke-opacity="1.00" stroke-width="0.3"><path d="
M 73.00 161.00 
C 72.67 155.46 72.00 148.32 72.00 142.00
C 70.32 149.52 70.35 160.41 72.00 168.00
C 73.30 165.96 73.14 163.40 73.00 161.00 Z"/>
</g>
<g fill="None" fill-opacity="0.0" stroke="#F4B481" stroke-opacity="1.00" stroke-width="0.3"><path d="
M 228.00 155.00 
C 228.54 152.88 229.58 150.63 230.00 148.00
C 229.35 150.25 228.36 152.21 228.00 155.00 Z"/>
</g>
<g fill="None" fill-opacity="0.0" stroke="#F2AB73" stroke-opacity="1.00" stroke-width="0.3"><path d="
M 237.00 185.00 
C 241.35 175.01 242.61 161.95 245.00 151.00
C 241.75 160.38 236.30 174.51 237.00 185.00 Z"/>
</g>
<g fill="None" fill-opacity="0.0" stroke="#8CACDA" stroke-opacity="1.00" stroke-width="0.3"><path d="
M 63.00 178.00 
C 63.29 174.99 64.00 170.75 64.00 167.00
C 63.71 170.01 63.00 174.25 63.00 178.00 Z"/>
</g>
<g fill="None" fill-opacity="0.0" stroke="#F9CFAE" stroke-opacity="0.76" stroke-width="0.3"><path d="
M 76.00 191.00 
C 76.68 188.35 77.35 185.07 78.00 182.00
C 76.74 185.18 76.36 187.06 76.00 191.00 Z"/>
</g>
<g fill="None" fill-opacity="0.0" stroke="#F0A76D" stroke-opacity="1.00" stroke-width="0.3"><path d="
M 231.00 211.00 
C 232.96 203.10 235.62 194.43 237.00 186.00
C 232.57 191.46 231.87 203.93 231.00 211.00 Z"/>
</g>
<g fill="None" fill-opacity="0.0" stroke="#F9FCF8" stroke-opacity="0.07" stroke-width="0.3"><path d="
M 40.00 190.00 
C 39.82 189.58 40.06 188.49 40.00 188.00
C 36.01 184.16 40.93 192.27 40.00 190.00 Z"/>
</g>
<g fill="None" fill-opacity="0.0" stroke="#7A9ED2" stroke-opacity="0.93" stroke-width="0.3"><path d="
M 62.00 211.00 
C 60.47 211.93 58.83 212.23 57.00 212.00
C 57.00 206.33 57.00 200.67 57.00 195.00
C 54.68 200.01 56.66 207.17 56.00 213.00
C 59.27 213.53 60.60 213.00 62.00 211.00 Z"/>
</g>
<g fill="None" fill-opacity="0.0" stroke="#F09550" stroke-opacity="0.81" stroke-width="0.3"><path d="
M 161.00 207.00 
C 156.80 204.09 155.76 203.12 150.00 203.00
C 153.15 203.51 157.75 205.48 161.00 207.00 Z"/>
</g>
<g fill="None" fill-opacity="0.0" stroke="#F3BD91" stroke-opacity="0.99" stroke-width="0.3"><path d="
M 112.00 219.00 
C 114.02 216.59 117.57 213.12 120.00 211.00
C 117.08 213.17 114.16 215.98 112.00 219.00 Z"/>
</g>
<g fill="None" fill-opacity="0.0" stroke="#F2A96F" stroke-opacity="1.00" stroke-width="0.3"><path d="
M 227.00 227.00 
C 227.76 223.73 229.22 219.73 230.00 216.00
C 228.90 219.34 227.48 223.13 227.00 227.00 Z"/>
</g>
<g fill="None" fill-opacity="0.0" stroke="#F4B079" stroke-opacity="0.90" stroke-width="0.3"><path d="
M 107.00 230.00 
C 104.69 231.89 100.64 230.39 98.00 230.00
C 101.36 230.86 103.99 233.51 107.00 230.00 Z"/>
</g>
<g fill="None" fill-opacity="0.0" stroke="#EFAD79" stroke-opacity="1.00" stroke-width="0.3"><path d="
M 203.00 254.00 
C 211.47 256.33 219.37 261.96 222.00 251.00
C 220.34 252.26 220.91 255.17 220.00 257.00
C 214.15 256.45 208.76 254.84 203.00 254.00 Z"/>
</g>
<g fill="#000000" fill-opacity="0.00" stroke="None">
<path d="
M 0.00 263.00 
L 279.00 263.00
L 279.00 0.00
L 0.00 0.00
L 0.00 263.00
M 178.00 54.00 
C 180.67 54.33 184.34 54.38 187.00 54.00
C 193.74 52.17 194.79 49.96 202.00 52.00
C 205.08 52.47 209.93 52.55 213.00 52.00
C 218.12 50.38 220.78 44.81 226.00 44.00
C 228.28 43.65 230.72 44.35 233.00 44.00
C 236.35 42.98 238.25 41.38 241.00 39.00
C 246.50 34.25 252.15 37.68 259.00 39.00
C 269.28 40.98 269.44 42.95 267.07 52.07 C 264.71 61.20 264.60 64.30 263.00 73.00
C 262.60 75.20 261.43 76.55 261.00 78.00
C 259.72 84.75 258.17 91.32 257.00 98.00
C 256.45 101.10 255.69 104.34 255.00 107.00
C 254.72 108.82 254.38 110.21 254.00 112.00
C 253.46 114.56 253.15 116.90 252.00 119.00
C 251.99 119.50 252.00 120.00 252.00 120.00
C 251.83 127.08 248.63 134.61 247.00 141.00
C 246.49 144.48 245.73 147.63 245.00 151.00
C 242.61 161.95 241.35 175.01 237.00 185.00
C 237.03 185.50 237.00 186.00 237.00 186.00
C 235.62 194.43 232.96 203.10 231.00 211.00
C 230.76 212.91 230.37 214.24 230.00 216.00
C 229.22 219.73 227.76 223.73 227.00 227.00
C 225.98 235.23 224.76 243.24 222.00 251.00
C 219.37 261.96 211.47 256.33 203.00 254.00
C 195.87 252.96 182.92 252.94 184.00 244.00 C 185.08 235.06 181.47 227.37 177.25 220.75 C 173.02 214.13 167.75 210.15 161.00 207.00
C 157.75 205.48 153.15 203.51 150.00 203.00
C 138.97 202.78 128.82 204.44 120.00 211.00
C 117.57 213.12 114.02 216.59 112.00 219.00
C 109.76 222.13 109.28 227.34 107.00 230.00
C 103.99 233.51 101.36 230.86 98.00 230.00
C 88.21 228.57 78.78 225.63 69.00 224.00
C 70.26 212.74 74.53 202.24 76.00 191.00
C 76.36 187.06 76.74 185.18 78.00 182.00
C 82.90 158.73 91.63 135.08 94.00 112.00
C 94.39 108.19 94.99 106.06 96.00 103.00
C 96.89 98.32 97.43 93.53 99.00 89.00
C 99.35 86.93 99.63 84.59 100.00 83.00
C 100.10 80.50 101.35 78.93 102.00 77.00
C 106.93 53.61 113.50 30.58 118.00 7.00
C 126.37 8.46 134.42 11.23 143.00 12.00
C 141.07 21.52 147.88 34.39 158.01 34.99 C 168.14 35.59 164.84 54.00 178.00 54.00
M 85.00 22.00 
C 85.75 23.28 89.81 27.12 91.00 28.00
C 92.65 29.04 94.22 29.41 96.00 30.00
C 98.25 30.43 100.73 29.68 103.00 30.00
C 101.98 45.60 79.00 31.33 78.00 21.00
C 64.53 9.02 66.00 32.55 66.00 40.00
C 66.13 41.73 66.13 44.33 66.00 46.00
C 66.00 52.00 66.00 58.00 66.00 64.00
C 66.00 66.77 65.20 69.96 65.00 72.00
C 65.00 84.86 65.00 97.63 65.00 111.00
C 65.00 115.41 64.35 120.34 64.00 124.00
C 64.00 138.33 64.00 152.67 64.00 167.00
C 64.00 170.75 63.29 174.99 63.00 178.00
C 63.00 183.20 63.54 189.96 63.00 195.00 C 62.46 200.04 64.90 206.86 62.00 211.00
C 60.60 213.00 59.27 213.53 56.00 213.00
C 56.66 207.17 54.68 200.01 57.00 195.00
C 57.00 183.00 57.00 171.00 57.00 159.00
C 57.00 150.98 57.30 142.26 58.00 135.00
C 58.00 125.00 58.00 115.00 58.00 105.00
C 58.00 96.07 57.91 86.63 59.00 79.00
C 59.00 71.33 59.00 63.67 59.00 56.00
C 59.00 52.64 59.82 48.60 60.00 46.00
C 59.60 35.87 60.27 23.92 60.00 13.00
C 67.67 13.00 75.33 13.00 83.00 13.00
C 83.12 16.14 84.48 18.93 85.00 22.00
M 82.00 39.00 
C 86.45 41.96 91.65 41.85 96.00 44.00
C 99.92 45.94 98.40 48.21 98.00 51.00
C 97.22 56.46 95.99 61.59 95.00 67.00
C 94.39 70.36 95.35 75.41 93.00 78.00
C 95.69 80.63 90.75 85.40 90.00 88.00
C 86.40 112.66 77.63 136.58 73.00 161.00
C 73.14 163.40 73.30 165.96 72.00 168.00
C 70.35 160.41 70.32 149.52 72.00 142.00
C 72.00 128.00 72.00 114.00 72.00 100.00
C 72.00 96.90 72.77 93.36 73.00 91.00
C 73.00 86.00 73.00 81.00 73.00 76.00
C 78.00 76.00 83.00 76.00 88.00 76.00
C 87.41 73.16 89.22 69.02 87.00 67.00
C 83.87 64.81 76.52 68.64 73.00 67.00
C 73.66 58.17 71.67 48.01 74.00 40.00
C 74.00 38.18 73.13 33.54 74.00 32.00
C 75.11 30.03 80.83 38.08 82.00 39.00
M 31.00 37.00 
C 35.92 42.12 40.59 47.30 49.00 45.00
C 51.10 51.97 43.16 49.69 39.00 50.00
C 37.18 51.19 38.97 54.00 37.00 55.00
C 42.69 57.26 50.73 57.57 49.00 67.00 C 47.27 76.43 49.84 82.38 49.00 91.00 C 48.16 99.62 49.58 107.82 49.00 116.00 C 48.42 124.18 50.13 131.64 48.02 139.02 C 45.92 146.41 51.21 156.90 47.00 163.00
C 46.10 164.30 44.64 166.30 42.00 165.00
C 43.21 171.27 44.51 181.02 46.31 186.69 C 48.10 192.37 50.60 203.74 43.00 204.00
C 42.36 199.34 41.20 194.15 40.00 190.00
C 40.93 192.27 36.01 184.16 40.00 188.00
C 39.00 179.60 36.28 171.27 35.07 162.93 C 33.86 154.58 31.11 146.27 30.02 137.98 C 28.94 129.68 25.92 121.08 25.07 112.93 C 24.22 104.77 19.75 96.48 19.23 88.77 C 18.71 81.06 16.15 72.13 15.67 64.33 C 15.19 56.53 8.85 46.45 11.00 39.00
C 12.65 33.28 24.94 35.28 30.00 34.00
C 29.47 35.28 30.97 35.86 31.00 37.00 Z"/>
</g>
<g fill="#ED7F2C" fill-opacity="1.00" stroke="None">
<path d="
M 102.00 77.00 
C 101.46 79.57 100.44 82.83 100.00 85.00
C 100.06 86.96 99.46 87.66 99.00 89.00
C 97.43 93.53 96.89 98.32 96.00 103.00
C 95.44 105.94 94.56 109.48 94.00 112.00
C 91.63 135.08 82.90 158.73 78.00 182.00
C 77.35 185.07 76.68 188.35 76.00 191.00
C 74.53 202.24 70.26 212.74 69.00 224.00
C 78.78 225.63 88.21 228.57 98.00 230.00
C 100.64 230.39 104.69 231.89 107.00 230.00
C 109.28 227.34 109.76 222.13 112.00 219.00
C 114.16 215.98 117.08 213.17 120.00 211.00
C 128.82 204.44 138.97 202.78 150.00 203.00
C 155.76 203.12 156.80 204.09 161.00 207.00
C 167.75 210.15 173.02 214.13 177.25 220.75 C 181.47 227.37 185.08 235.06 184.00 244.00 C 182.92 252.94 195.87 252.96 203.00 254.00
C 208.76 254.84 214.15 256.45 220.00 257.00
C 220.91 255.17 220.34 252.26 222.00 251.00
C 224.76 243.24 225.98 235.23 227.00 227.00
C 227.48 223.13 228.90 219.34 230.00 216.00
C 230.37 214.24 230.76 212.91 231.00 211.00
C 231.87 203.93 232.57 191.46 237.00 186.00
C 237.00 186.00 237.03 185.50 237.00 185.00
C 236.30 174.51 241.75 160.38 245.00 151.00
C 245.73 147.63 246.49 144.48 247.00 141.00
C 247.87 135.03 248.27 124.58 252.00 120.00
C 252.00 120.00 251.99 119.50 252.00 119.00
C 252.07 115.98 253.21 114.36 254.00 112.00
C 254.38 110.21 254.72 108.82 255.00 107.00
C 255.51 103.66 256.18 100.83 257.00 98.00
C 258.17 91.32 259.72 84.75 261.00 78.00
C 261.31 76.37 262.66 74.25 263.00 73.00
C 264.60 64.30 264.71 61.20 267.07 52.07 C 269.44 42.95 269.28 40.98 259.00 39.00
C 256.50 39.02 242.60 42.54 241.00 39.00
C 238.25 41.38 236.35 42.98 233.00 44.00
C 230.58 44.73 227.89 43.86 226.00 44.00
C 220.78 44.81 218.12 50.38 213.00 52.00
C 209.30 53.17 205.63 53.03 202.00 52.00
C 194.79 49.96 193.74 52.17 187.00 54.00
C 183.71 54.89 181.22 54.80 178.00 54.00
C 164.84 54.00 168.14 35.59 158.01 34.99 C 147.88 34.39 141.07 21.52 143.00 12.00
C 134.42 11.23 126.37 8.46 118.00 7.00
C 113.50 30.58 106.93 53.61 102.00 77.00
M 260.00 47.00 
C 245.84 114.25 230.06 180.95 215.00 248.00
C 206.82 248.70 199.95 244.35 192.00 244.00
C 195.49 194.32 119.24 176.38 101.00 223.00
C 93.37 221.24 85.77 219.30 78.00 218.00
C 93.11 150.64 108.89 83.41 124.00 16.00
C 136.17 14.70 135.30 26.16 140.77 33.23 C 146.24 40.30 155.50 41.18 159.31 48.69 C 163.11 56.21 171.19 62.38 180.00 62.00 C 188.81 61.61 200.76 59.43 210.00 60.00 C 219.24 60.57 225.86 51.73 235.07 51.07 C 244.28 50.42 249.78 38.58 260.00 47.00 Z"/>
</g>
<g fill="#3D73C0" fill-opacity="1.00" stroke="None">
<path d="
M 60.00 46.00 
C 60.14 49.48 59.26 53.29 59.00 56.00
C 59.00 63.67 59.00 71.33 59.00 79.00
C 59.00 87.68 58.77 97.09 58.00 105.00
C 58.00 115.00 58.00 125.00 58.00 135.00
C 58.00 143.02 57.70 151.74 57.00 159.00
C 57.00 171.00 57.00 183.00 57.00 195.00
C 57.00 200.67 57.00 206.33 57.00 212.00
C 58.83 212.23 60.47 211.93 62.00 211.00
C 64.90 206.86 62.46 200.04 63.00 195.00 C 63.54 189.96 63.00 183.20 63.00 178.00
C 63.00 174.25 63.71 170.01 64.00 167.00
C 64.00 152.67 64.00 138.33 64.00 124.00
C 64.00 119.59 64.65 114.66 65.00 111.00
C 65.00 97.63 65.00 84.86 65.00 72.00
C 65.00 69.23 65.80 66.04 66.00 64.00
C 66.00 58.00 66.00 52.00 66.00 46.00
C 66.00 44.00 66.00 42.00 66.00 40.00
C 66.00 32.55 64.53 9.02 78.00 21.00
C 83.65 26.03 95.66 45.72 102.00 31.00
C 100.12 30.53 97.07 32.06 96.00 30.00
C 94.22 29.41 92.65 29.04 91.00 28.00
C 88.84 26.64 86.12 24.27 85.00 22.00
C 84.48 18.93 83.12 16.14 83.00 13.00
C 75.33 13.00 67.67 13.00 60.00 13.00
C 60.27 23.92 59.60 35.87 60.00 46.00 Z"/>
</g>
<g fill="#FEF7F2" fill-opacity="0.19" stroke="None">
<path d="
M 260.00 47.00 
C 249.78 38.58 244.28 50.42 235.07 51.07 C 225.86 51.73 219.24 60.57 210.00 60.00 C 200.76 59.43 188.81 61.61 180.00 62.00 C 171.19 62.38 163.11 56.21 159.31 48.69 C 155.50 41.18 146.24 40.30 140.77 33.23 C 135.30 26.16 136.17 14.70 124.00 16.00
C 108.89 83.41 93.11 150.64 78.00 218.00
C 85.77 219.30 93.37 221.24 101.00 223.00
C 119.24 176.38 195.49 194.32 192.00 244.00
C 199.95 244.35 206.82 248.70 215.00 248.00
C 230.06 180.95 245.84 114.25 260.00 47.00
M 187.00 70.00 
C 189.66 69.57 192.90 67.25 196.00 67.00
C 205.84 66.22 217.06 68.81 225.70 62.69 C 234.33 56.58 243.22 56.97 252.00 52.00
C 247.87 66.64 245.23 81.53 242.00 96.00
C 235.18 96.89 229.81 92.24 223.00 93.00
C 222.79 96.01 221.44 98.77 222.00 102.00
C 226.27 103.98 239.36 102.29 238.99 109.01 C 238.63 115.73 234.98 121.89 234.67 128.67 C 234.36 135.45 230.20 141.15 230.00 148.00
C 229.58 150.63 228.54 152.88 228.00 155.00
C 224.30 183.42 214.09 210.86 209.00 239.00
C 193.95 240.11 197.59 220.42 189.70 211.30 C 181.80 202.19 174.35 195.21 162.92 191.08 C 151.50 186.94 133.72 186.49 122.93 191.93 C 112.13 197.36 103.54 203.60 98.00 214.00
C 85.50 216.03 87.33 207.17 89.98 198.98 C 92.62 190.79 93.31 182.48 95.33 174.33 C 97.35 166.18 99.29 159.11 100.98 150.98 C 102.66 142.84 104.94 134.82 106.78 126.78 C 108.61 118.74 109.86 110.90 111.98 102.98 C 114.09 95.05 115.07 86.71 118.00 79.00
C 125.04 79.42 137.20 84.94 136.00 73.00
C 132.92 69.56 118.95 72.41 120.01 65.99 C 121.07 59.57 123.53 53.25 124.93 46.93 C 126.32 40.61 126.75 33.10 130.00 28.00
C 132.09 42.28 146.42 43.51 153.30 53.70 C 160.19 63.88 173.98 71.85 187.00 70.00 Z"/>
</g>
<g fill="#779DD3" fill-opacity="1.00" stroke="None">
<path d="
M 96.00 30.00 
C 97.07 32.06 100.12 30.53 102.00 31.00
C 95.66 45.72 83.65 26.03 78.00 21.00
C 79.00 31.33 101.98 45.60 103.00 30.00
C 100.73 29.68 98.25 30.43 96.00 30.00 Z"/>
</g>
<g fill="#83A5D5" fill-opacity="1.00" stroke="None">
<path d="
M 91.00 28.00 
C 89.81 27.12 85.75 23.28 85.00 22.00
C 86.12 24.27 88.84 26.64 91.00 28.00 Z"/>
</g>
<g fill="#EC781D" fill-opacity="1.00" stroke="None">
<path d="
M 228.00 155.00 
C 228.36 152.21 229.35 150.25 230.00 148.00
C 230.20 141.15 234.36 135.45 234.67 128.67 C 234.98 121.89 238.63 115.73 238.99 109.01 C 239.36 102.29 226.27 103.98 222.00 102.00
C 221.44 98.77 222.79 96.01 223.00 93.00
C 229.81 92.24 235.18 96.89 242.00 96.00
C 245.23 81.53 247.87 66.64 252.00 52.00
C 243.22 56.97 234.33 56.58 225.70 62.69 C 217.06 68.81 205.84 66.22 196.00 67.00
C 192.99 67.59 190.91 69.79 187.00 70.00
C 173.98 71.85 160.19 63.88 153.30 53.70 C 146.42 43.51 132.09 42.28 130.00 28.00
C 126.75 33.10 126.32 40.61 124.93 46.93 C 123.53 53.25 121.07 59.57 120.01 65.99 C 118.95 72.41 132.92 69.56 136.00 73.00
C 137.20 84.94 125.04 79.42 118.00 79.00
C 115.07 86.71 114.09 95.05 111.98 102.98 C 109.86 110.90 108.61 118.74 106.78 126.78 C 104.94 134.82 102.66 142.84 100.98 150.98 C 99.29 159.11 97.35 166.18 95.33 174.33 C 93.31 182.48 92.62 190.79 89.98 198.98 C 87.33 207.17 85.50 216.03 98.00 214.00
C 103.54 203.60 112.13 197.36 122.93 191.93 C 133.72 186.49 151.50 186.94 162.92 191.08 C 174.35 195.21 181.80 202.19 189.70 211.30 C 197.59 220.42 193.95 240.11 209.00 239.00
C 214.09 210.86 224.30 183.42 228.00 155.00
M 172.00 81.00 
C 172.70 84.27 170.57 86.77 171.00 90.00
C 163.36 89.88 156.47 86.94 149.00 86.00
C 149.12 82.86 150.48 80.07 151.00 77.00
C 157.86 78.80 164.84 80.25 172.00 81.00
M 208.00 89.00 
C 209.90 104.80 193.12 93.68 185.00 94.00
C 184.97 90.83 185.87 87.88 187.00 85.00
C 194.03 86.17 200.86 88.15 208.00 89.00 Z"/>
</g>
<g fill="#83A6D7" fill-opacity="1.00" stroke="None">
<path d="
M 74.00 32.00 
C 76.98 33.93 79.10 37.07 82.00 39.00
C 80.83 38.08 75.11 30.03 74.00 32.00 Z"/>
</g>
<g fill="#3A71BF" fill-opacity="1.00" stroke="None">
<path d="
M 74.00 40.00 
C 74.00 48.67 74.00 57.33 74.00 66.00
C 78.17 66.64 83.66 64.71 87.00 67.00
C 89.22 69.02 87.41 73.16 88.00 76.00
C 83.00 76.00 78.00 76.00 73.00 76.00
C 73.00 81.00 73.00 86.00 73.00 91.00
C 73.00 94.10 72.23 97.64 72.00 100.00
C 72.00 114.00 72.00 128.00 72.00 142.00
C 72.00 148.32 72.67 155.46 73.00 161.00
C 77.63 136.58 86.40 112.66 90.00 88.00
C 90.51 84.49 91.35 81.48 92.00 78.00
C 92.74 74.01 93.94 70.43 95.00 67.00
C 95.99 61.59 97.22 56.46 98.00 51.00
C 97.98 48.68 98.19 45.49 96.00 44.00
C 91.65 41.85 86.45 41.96 82.00 39.00
C 79.10 37.07 76.98 33.93 74.00 32.00
C 73.13 33.54 74.00 38.18 74.00 40.00 Z"/>
</g>
<g fill="#86DA62" fill-opacity="0.51" stroke="None">
<path d="
M 11.00 39.00 
C 14.46 37.31 30.08 42.13 31.00 37.00
C 30.97 35.86 29.47 35.28 30.00 34.00
C 24.94 35.28 12.65 33.28 11.00 39.00 Z"/>
</g>
<g fill="#ED7D28" fill-opacity="0.74" stroke="None">
<path d="
M 241.00 39.00 
C 242.60 42.54 256.50 39.02 259.00 39.00
C 252.15 37.68 246.50 34.25 241.00 39.00 Z"/>
</g>
<g fill="#91DD70" fill-opacity="0.96" stroke="None">
<path d="
M 11.00 39.00 
C 8.85 46.45 15.19 56.53 15.67 64.33 C 16.15 72.13 18.71 81.06 19.23 88.77 C 19.75 96.48 24.22 104.77 25.07 112.93 C 25.92 121.08 28.94 129.68 30.02 137.98 C 31.11 146.27 33.86 154.58 35.07 162.93 C 36.28 171.27 39.00 179.60 40.00 188.00
C 40.06 188.49 39.82 189.58 40.00 190.00
C 41.20 194.15 42.36 199.34 43.00 204.00
C 50.60 203.74 48.10 192.37 46.31 186.69 C 44.51 181.02 43.21 171.27 42.00 165.00
C 40.01 154.68 36.26 143.86 35.02 132.98 C 33.79 122.10 30.57 109.88 28.68 99.32 C 26.79 88.77 23.76 75.76 22.22 65.78 C 20.68 55.80 13.03 41.19 26.00 40.00
C 28.37 45.04 33.30 49.71 39.00 50.00
C 43.16 49.69 51.10 51.97 49.00 45.00
C 40.59 47.30 35.92 42.12 31.00 37.00
C 30.08 42.13 14.46 37.31 11.00 39.00 Z"/>
</g>
<g fill="#F9FDF7" fill-opacity="0.16" stroke="None">
<path d="
M 42.00 165.00 
C 44.64 166.30 46.10 164.30 47.00 163.00
C 49.03 157.99 42.85 150.74 43.07 144.93 C 43.30 139.12 41.00 131.01 40.00 125.00 C 39.00 118.98 36.74 112.28 36.01 105.99 C 35.27 99.70 32.77 93.36 32.00 87.00
C 36.17 87.03 39.88 85.29 44.00 85.00
C 44.09 83.30 44.47 77.10 42.00 79.00
C 38.70 77.50 34.77 80.48 31.00 80.00
C 28.24 70.21 26.19 60.22 25.00 50.00
C 29.13 51.07 32.37 55.11 37.00 55.00
C 38.97 54.00 37.18 51.19 39.00 50.00
C 33.30 49.71 28.37 45.04 26.00 40.00
C 13.03 41.19 20.68 55.80 22.22 65.78 C 23.76 75.76 26.79 88.77 28.68 99.32 C 30.57 109.88 33.79 122.10 35.02 132.98 C 36.26 143.86 40.01 154.68 42.00 165.00 Z"/>
</g>
<g fill="#D1E7F5" fill-opacity="0.44" stroke="None">
<path d="
M 66.00 46.00 
C 66.13 44.33 66.13 41.73 66.00 40.00
C 66.00 42.00 66.00 44.00 66.00 46.00 Z"/>
</g>
<g fill="#7198D1" fill-opacity="1.00" stroke="None">
<path d="
M 87.00 67.00 
C 83.66 64.71 78.17 66.64 74.00 66.00
C 74.00 57.33 74.00 48.67 74.00 40.00
C 71.67 48.01 73.66 58.17 73.00 67.00
C 76.52 68.64 83.87 64.81 87.00 67.00 Z"/>
</g>
<g fill="#799ED3" fill-opacity="1.00" stroke="None">
<path d="
M 98.00 51.00 
C 98.40 48.21 99.92 45.94 96.00 44.00
C 98.19 45.49 97.98 48.68 98.00 51.00 Z"/>
</g>
<g fill="#F4B37F" fill-opacity="1.00" stroke="None">
<path d="
M 233.00 44.00 
C 230.72 44.35 228.28 43.65 226.00 44.00
C 227.89 43.86 230.58 44.73 233.00 44.00 Z"/>
</g>
<g fill="#749AD1" fill-opacity="1.00" stroke="None">
<path d="
M 59.00 56.00 
C 59.26 53.29 60.14 49.48 60.00 46.00
C 59.82 48.60 59.00 52.64 59.00 56.00 Z"/>
</g>
<g fill="#89DB66" fill-opacity="1.00" stroke="None">
<path d="
M 47.00 163.00 
C 51.21 156.90 45.92 146.41 48.02 139.02 C 50.13 131.64 48.42 124.18 49.00 116.00 C 49.58 107.82 48.16 99.62 49.00 91.00 C 49.84 82.38 47.27 76.43 49.00 67.00 C 50.73 57.57 42.69 57.26 37.00 55.00
C 32.37 55.11 29.13 51.07 25.00 50.00
C 26.19 60.22 28.24 70.21 31.00 80.00
C 34.77 80.48 38.70 77.50 42.00 79.00
C 44.47 77.10 44.09 83.30 44.00 85.00
C 39.88 85.29 36.17 87.03 32.00 87.00
C 32.77 93.36 35.27 99.70 36.01 105.99 C 36.74 112.28 39.00 118.98 40.00 125.00 C 41.00 131.01 43.30 139.12 43.07 144.93 C 42.85 150.74 49.03 157.99 47.00 163.00 Z"/>
</g>
<g fill="#F2B17D" fill-opacity="1.00" stroke="None">
<path d="
M 213.00 52.00 
C 209.93 52.55 205.08 52.47 202.00 52.00
C 205.63 53.03 209.30 53.17 213.00 52.00 Z"/>
</g>
<g fill="#F5B583" fill-opacity="1.00" stroke="None">
<path d="
M 187.00 54.00 
C 184.34 54.38 180.67 54.33 178.00 54.00
C 181.22 54.80 183.71 54.89 187.00 54.00 Z"/>
</g>
<g fill="#87A8D8" fill-opacity="1.00" stroke="None">
<path d="
M 65.00 72.00 
C 65.20 69.96 66.00 66.77 66.00 64.00
C 65.80 66.04 65.00 69.23 65.00 72.00 Z"/>
</g>
<g fill="#98B5DD" fill-opacity="0.80" stroke="None">
<path d="
M 92.00 78.00 
C 92.01 77.93 93.00 78.00 93.00 78.00
C 95.35 75.41 94.39 70.36 95.00 67.00
C 93.94 70.43 92.74 74.01 92.00 78.00 Z"/>
</g>
<g fill="#F5B786" fill-opacity="1.00" stroke="None">
<path d="
M 187.00 70.00 
C 190.91 69.79 192.99 67.59 196.00 67.00
C 192.90 67.25 189.66 69.57 187.00 70.00 Z"/>
</g>
<g fill="#F2BE95" fill-opacity="1.00" stroke="None">
<path d="
M 261.00 78.00 
C 261.43 76.55 262.60 75.20 263.00 73.00
C 262.66 74.25 261.31 76.37 261.00 78.00 Z"/>
</g>
<g fill="#F8D5BA" fill-opacity="0.87" stroke="None">
<path d="
M 100.00 83.00 
C 99.98 83.50 99.98 84.50 100.00 85.00
C 100.44 82.83 101.46 79.57 102.00 77.00
C 101.35 78.93 100.10 80.50 100.00 83.00 Z"/>
</g>
<g fill="#FEF8F4" fill-opacity="0.18" stroke="None">
<path d="
M 172.00 81.00 
C 164.84 80.25 157.86 78.80 151.00 77.00
C 150.48 80.07 149.12 82.86 149.00 86.00
C 156.47 86.94 163.36 89.88 171.00 90.00
C 170.57 86.77 172.70 84.27 172.00 81.00 Z"/>
</g>
<g fill="#BDCADB" fill-opacity="0.47" stroke="None">
<path d="
M 90.00 88.00 
C 90.75 85.40 95.69 80.63 93.00 78.00
C 93.00 78.00 92.01 77.93 92.00 78.00
C 91.35 81.48 90.51 84.49 90.00 88.00 Z"/>
</g>
<g fill="#8EADD8" fill-opacity="0.93" stroke="None">
<path d="
M 58.00 105.00 
C 58.77 97.09 59.00 87.68 59.00 79.00
C 57.91 86.63 58.00 96.07 58.00 105.00 Z"/>
</g>
<g fill="#FBE2CE" fill-opacity="0.62" stroke="None">
<path d="
M 99.00 89.00 
C 99.46 87.66 100.06 86.96 100.00 85.00
C 99.98 84.50 99.98 83.50 100.00 83.00
C 99.63 84.59 99.35 86.93 99.00 89.00 Z"/>
</g>
<g fill="#FEF7F2" fill-opacity="0.20" stroke="None">
<path d="
M 208.00 89.00 
C 200.86 88.15 194.03 86.17 187.00 85.00
C 185.87 87.88 184.97 90.83 185.00 94.00
C 193.12 93.68 209.90 104.80 208.00 89.00 Z"/>
</g>
<g fill="#80A4D6" fill-opacity="1.00" stroke="None">
<path d="
M 72.00 100.00 
C 72.23 97.64 73.00 94.10 73.00 91.00
C 72.77 93.36 72.00 96.90 72.00 100.00 Z"/>
</g>
<g fill="#F2B584" fill-opacity="1.00" stroke="None">
<path d="
M 255.00 107.00 
C 255.69 104.34 256.45 101.10 257.00 98.00
C 256.18 100.83 255.51 103.66 255.00 107.00 Z"/>
</g>
<g fill="#F7D8BA" fill-opacity="0.69" stroke="None">
<path d="
M 94.00 112.00 
C 94.56 109.48 95.44 105.94 96.00 103.00
C 94.99 106.06 94.39 108.19 94.00 112.00 Z"/>
</g>
<g fill="#7DA2D5" fill-opacity="1.00" stroke="None">
<path d="
M 64.00 124.00 
C 64.35 120.34 65.00 115.41 65.00 111.00
C 64.65 114.66 64.00 119.59 64.00 124.00 Z"/>
</g>
<g fill="#F4B480" fill-opacity="1.00" stroke="None">
<path d="
M 252.00 119.00 
C 253.15 116.90 253.46 114.56 254.00 112.00
C 253.21 114.36 252.07 115.98 252.00 119.00 Z"/>
</g>
<g fill="#F3AE78" fill-opacity="1.00" stroke="None">
<path d="
M 247.00 141.00 
C 248.63 134.61 251.83 127.08 252.00 120.00
C 248.27 124.58 247.87 135.03 247.00 141.00 Z"/>
</g>
<g fill="#7EA0D0" fill-opacity="1.00" stroke="None">
<path d="
M 57.00 159.00 
C 57.70 151.74 58.00 143.02 58.00 135.00
C 57.30 142.26 57.00 150.98 57.00 159.00 Z"/>
</g>
<g fill="#7199D1" fill-opacity="1.00" stroke="None">
<path d="
M 73.00 161.00 
C 72.67 155.46 72.00 148.32 72.00 142.00
C 70.32 149.52 70.35 160.41 72.00 168.00
C 73.30 165.96 73.14 163.40 73.00 161.00 Z"/>
</g>
<g fill="#F4B481" fill-opacity="1.00" stroke="None">
<path d="
M 228.00 155.00 
C 228.54 152.88 229.58 150.63 230.00 148.00
C 229.35 150.25 228.36 152.21 228.00 155.00 Z"/>
</g>
<g fill="#F2AB73" fill-opacity="1.00" stroke="None">
<path d="
M 237.00 185.00 
C 241.35 175.01 242.61 161.95 245.00 151.00
C 241.75 160.38 236.30 174.51 237.00 185.00 Z"/>
</g>
<g fill="#8CACDA" fill-opacity="1.00" stroke="None">
<path d="
M 63.00 178.00 
C 63.29 174.99 64.00 170.75 64.00 167.00
C 63.71 170.01 63.00 174.25 63.00 178.00 Z"/>
</g>
<g fill="#F9CFAE" fill-opacity="0.76" stroke="None">
<path d="
M 76.00 191.00 
C 76.68 188.35 77.35 185.07 78.00 182.00
C 76.74 185.18 76.36 187.06 76.00 191.00 Z"/>
</g>
<g fill="#F0A76D" fill-opacity="1.00" stroke="None">
<path d="
M 231.00 211.00 
C 232.96 203.10 235.62 194.43 237.00 186.00
C 232.57 191.46 231.87 203.93 231.00 211.00 Z"/>
</g>
<g fill="#F9FCF8" fill-opacity="0.07" stroke="None">
<path d="
M 40.00 190.00 
C 39.82 189.58 40.06 188.49 40.00 188.00
C 36.01 184.16 40.93 192.27 40.00 190.00 Z"/>
</g>
<g fill="#7A9ED2" fill-opacity="0.93" stroke="None">
<path d="
M 62.00 211.00 
C 60.47 211.93 58.83 212.23 57.00 212.00
C 57.00 206.33 57.00 200.67 57.00 195.00
C 54.68 200.01 56.66 207.17 56.00 213.00
C 59.27 213.53 60.60 213.00 62.00 211.00 Z"/>
</g>
<g fill="#F09550" fill-opacity="0.81" stroke="None">
<path d="
M 161.00 207.00 
C 156.80 204.09 155.76 203.12 150.00 203.00
C 153.15 203.51 157.75 205.48 161.00 207.00 Z"/>
</g>
<g fill="#F3BD91" fill-opacity="0.99" stroke="None">
<path d="
M 112.00 219.00 
C 114.02 216.59 117.57 213.12 120.00 211.00
C 117.08 213.17 114.16 215.98 112.00 219.00 Z"/>
</g>
<g fill="#F2A96F" fill-opacity="1.00" stroke="None">
<path d="
M 227.00 227.00 
C 227.76 223.73 229.22 219.73 230.00 216.00
C 228.90 219.34 227.48 223.13 227.00 227.00 Z"/>
</g>
<g fill="#F4B079" fill-opacity="0.90" stroke="None">
<path d="
M 107.00 230.00 
C 104.69 231.89 100.64 230.39 98.00 230.00
C 101.36 230.86 103.99 233.51 107.00 230.00 Z"/>
</g>
<g fill="#EFAD79" fill-opacity="1.00" stroke="None">
<path d="
M 203.00 254.00 
C 211.47 256.33 219.37 261.96 222.00 251.00
C 220.34 252.26 220.91 255.17 220.00 257.00
C 214.15 256.45 208.76 254.84 203.00 254.00 Z"/>
</g>
</svg>